<?xml version="1.0" encoding="utf-8"?>
<svg viewBox="0 0 100 100" xmlns="http://www.w3.org/2000/svg">
<rect width="100" height="100" style="fill: rgb(39, 31, 207);" y="-110"/>
<rect width="100" height="100" style="fill: rgb(217, 176, 105);" y="-110" x="110"/>
<rect width="100" height="100" style="fill: rgb(49, 203, 217);" y="-110" x="220"/>
<rect width="100" height="100" style="fill: rgb(217, 56, 51);" y="-110" x="330"/>
<rect width="100" height="100" style="fill: rgb(21, 16, 108);" x="-110" y="-110"/>
<path style="fill: rgb(255, 255, 255);" d="M -163 23 C -175 11 -141 3 -144 25 C -147 47 -118 54 -125 68 C -133 84 -163 93 -176 81 C -190 67 -148 37 -163 23 Z"/>
<path style="fill: rgba(0, 0, 0, 0.3);" d="M 0 -31 C 0 -28 11 -24 19 -26 L 17 -42 C 16 -49 28 -49 29 -44 L 30 -26 C 51 -14 68 -32 100 -32 L 100 -10 L 0 -10 L 0 -31 Z"/>
<path style="fill: rgba(0, 0, 0, 0.3);" d="M 0 -14 C 52 -31 58 12 100 -4 L 100 -48 L 0 -48 L 0 -14 Z" transform="matrix(-1, 0, 0, -1, 100, -58.468605)"/>
<path style="fill: rgba(255, 255, 255, 0.1);" d="M 110 -43 C 110 -43 148 -26 210 -32 L 210 -10 L 110 -10 L 110 -43 Z"/>
<path style="fill: rgba(255, 255, 255, 0.1);" d="M 220 -107 C 220 -107 266 -57 320 -83 L 320 -51 C 294 -67 235 -49 220 -74 L 220 -107 Z"/>
<path style="fill: rgba(255, 255, 255, 0.1);" d="M 220 -32 C 220 -32 266 -44 320 -18 L 320 -49 C 294 -33 260 -63 220 -57 L 220 -32 Z" transform="matrix(-1, 0, 0, -1, 540, -69.986233)"/>
<path style="fill: rgb(17, 17, 17);" d="M 155 24 L 155 22 L 154 21 L 154 17 L 152 12 L 154 11 L 154 6 L 160 4 L 165 8 L 165 11 L 167 12 L 165 17 L 164 22 L 163 23 L 163 24 L 172 28 L 176 46 L 173 64 L 170 72 L 168 70 L 170 67 L 167 66 L 170 63 L 171 48 L 168 35 L 167 55 L 167 90 L 173 96 L 169 97 L 163 92 L 160 61 L 158 92 L 151 97 L 147 96 L 154 90 L 152 55 L 151 35 L 149 47 L 149 61 L 152 64 L 150 65 L 151 70 L 148 70 L 146 63 L 144 46 L 146 29 L 155 24 Z"/>
<g>
<path style="fill: rgb(255, 255, 255);" d="M 215 24 L 223 24 L 232 28 L 236 46 L 233 64 L 230 63 L 231 48 L 228 35 L 227 55 L 227 90 L 233 96 L 229 97 L 223 92 L 220 61 L 218 92 L 211 97 L 207 96 L 214 90 L 212 55 L 211 35 L 209 47 L 209 61 L 206 63 L 204 46 L 206 29 L 215 24 Z"/>
<path style="fill: rgb(17, 17, 17);" d="M 215 24 L 215 22 L 214 21 L 214 17 L 212 12 L 214 11 L 214 6 L 220 4 L 225 8 L 225 11 L 227 12 L 225 17 L 224 22 L 223 23 L 223 24 L 219 34 L 215 24 Z"/>
<path style="fill: rgb(17, 17, 17);" d="M 206 63 L 209 61 L 212 64 L 210 65 L 211 70 L 208 70 L 206 63 Z"/>
<path style="fill: rgb(17, 17, 17);" d="M 230 63 L 233 64 L 230 72 L 228 70 L 230 67 L 227 66 L 230 63 Z"/>
</g>
<path style="fill: rgb(17, 17, 17);" d="M 455 24 L 455 22 L 454 21 L 454 17 L 452 12 L 454 11 L 454 6 L 460 4 L 465 8 L 465 11 L 467 12 L 465 17 L 464 22 L 463 23 L 463 24 L 472 28 L 476 46 L 473 64 L 470 72 L 468 70 L 470 67 L 467 66 L 470 63 L 471 48 L 468 35 L 467 55 L 467 90 L 473 96 L 469 97 L 463 92 L 460 61 L 458 92 L 451 97 L 447 96 L 454 90 L 452 55 L 451 35 L 449 47 L 449 61 L 452 64 L 450 65 L 451 70 L 448 70 L 446 63 L 444 46 L 446 29 L 455 24 Z"/>
<g>
<path style="fill: rgb(255, 255, 255);" d="M 275 24 L 283 24 L 292 28 L 296 46 L 293 64 L 290 63 L 291 48 L 288 35 L 287 55 L 272 55 L 271 35 L 269 47 L 269 61 L 266 63 L 264 46 L 266 29 L 275 24 Z"/>
<path style="fill: rgb(17, 17, 17);" d="M 275 24 L 275 22 L 274 21 L 274 17 L 272 12 L 274 11 L 274 6 L 280 4 L 285 8 L 285 11 L 287 12 L 285 17 L 284 22 L 283 23 L 283 24 L 279 34 L 275 24 Z"/>
<path style="fill: rgb(17, 17, 17);" d="M 266 63 L 269 61 L 272 64 L 270 65 L 271 70 L 268 70 L 266 63 Z"/>
<path style="fill: rgb(17, 17, 17);" d="M 290 63 L 293 64 L 290 72 L 288 70 L 290 67 L 287 66 L 290 63 Z"/>
<path style="fill: rgb(17, 17, 17);" d="M 272 55 L 287 55 L 287 90 L 293 96 L 289 97 L 283 92 L 280 61 L 278 92 L 271 97 L 267 96 L 274 90 L 272 55 Z"/>
</g>
<rect width="251" height="251" style="fill: rgb(217, 176, 105);" x="110" y="110"/>
<path style="fill: rgba(0, 0, 0, 0.09);" d="M 110 278 C 213 293 313 263 361 270 L 361 361 L 110 361 L 110 278 Z"/>
<ellipse style="fill: rgba(0, 0, 0, 0.23);" cx="260" cy="354" rx="15" ry="3" transform="matrix(1, 0, 0.013244, 1, -4.679406, -29.322147)"/>
<g transform="matrix(1, 0, 0, 1, 40, 230)">
<path style="fill: rgb(255, 255, 255);" d="M 215 24 L 223 24 L 232 28 L 236 46 L 233 64 L 230 63 L 231 48 L 228 35 L 227 55 L 227 90 L 233 96 L 229 97 L 223 92 L 220 61 L 218 92 L 211 97 L 207 96 L 214 90 L 212 55 L 211 35 L 209 47 L 209 61 L 206 63 L 204 46 L 206 29 L 215 24 Z"/>
<path style="fill: rgb(17, 17, 17);" d="M 215 24 L 215 22 L 214 21 L 214 17 L 212 12 L 214 11 L 214 6 L 220 4 L 225 8 L 225 11 L 227 12 L 225 17 L 224 22 L 223 23 L 223 24 L 219 34 L 215 24 Z"/>
<path style="fill: rgb(17, 17, 17);" d="M 206 63 L 209 61 L 212 64 L 210 65 L 211 70 L 208 70 L 206 63 Z"/>
<path style="fill: rgb(17, 17, 17);" d="M 230 63 L 233 64 L 230 72 L 228 70 L 230 67 L 227 66 L 230 63 Z"/>
</g>
<path style="fill: rgb(17, 17, 17);" d="M 335 24 L 335 22 L 334 21 L 334 17 L 332 12 L 334 11 L 334 6 L 340 4 L 345 8 L 345 11 L 347 12 L 345 17 L 344 22 L 343 23 L 343 24 L 352 28 L 356 46 L 353 64 L 350 72 L 348 70 L 350 67 L 347 66 L 350 63 L 351 48 L 348 35 L 348 60 L 347 90 L 353 96 L 349 97 L 343 92 L 340 61 L 338 92 L 331 97 L 327 96 L 334 90 L 332 60 L 331 35 L 329 47 L 329 61 L 332 64 L 330 65 L 331 70 L 328 70 L 326 63 L 324 46 L 326 29 L 335 24 Z"/>
<path style="fill: rgb(255, 255, 255);" d="M 335 24 C 335 25 343 25 343 24 L 339 40 L 335 24 Z"/>
<rect style="fill: rgb(255, 255, 255);" x="279" y="213" width="48" height="32" rx="4" ry="4"/>
<text style="white-space: pre; fill: rgb(51, 51, 51); font-family: Arial, sans-serif; font-size: 8.9px;" x="287" y="236">...</text>
<path style="fill: rgb(255, 255, 255);" d="M 395 24 L 403 24 L 412 28 L 416 46 L 413 64 L 410 63 L 411 48 L 408 35 L 407 55 L 407 90 L 413 96 L 409 97 L 403 92 L 400 61 L 398 92 L 391 97 L 387 96 L 394 90 L 392 55 L 391 35 L 389 47 L 389 61 L 386 63 L 384 46 L 386 29 L 395 24 Z"/>
<path style="fill: rgb(17, 17, 17);" d="M 395 24 L 395 22 L 394 21 L 394 17 L 392 12 L 394 11 L 394 6 L 400 4 L 405 8 L 405 11 L 407 12 L 405 17 L 404 22 L 403 23 L 403 24 L 399 43 L 395 24 Z"/>
<path style="fill: rgb(17, 17, 17);" d="M 386 63 L 389 61 L 392 64 L 390 65 L 391 70 L 388 70 L 386 63 Z"/>
<path style="fill: rgb(17, 17, 17);" d="M 410 63 L 413 64 L 410 72 L 408 70 L 410 67 L 407 66 L 410 63 Z"/>
<path style="fill: rgb(255, 255, 255);" d="M 396 24 L 397 27 L 402 24 L 401 27"/>
<path style="" d="M 335 25 L 337 28 L 343 25 L 341 28"/>
<path style="fill: rgb(255, 255, 255);" d="M 455 24 L 463 24 L 472 28 L 476 46 L 471 48 L 468 35 L 467 55 L 452 55 L 451 35 L 449 47 L 444 46 L 446 29 L 455 24 Z"/>
<path style="fill: rgb(17, 17, 17);" d="M 455 24 L 455 22 L 454 21 L 454 17 L 452 12 L 454 11 L 454 6 L 460 4 L 465 8 L 465 11 L 467 12 L 465 17 L 464 22 L 463 23 L 463 24 L 459 34 L 455 24 Z"/>
<path style="fill: rgb(17, 17, 17);" d="M 446 63 L 449 61 L 452 64 L 450 65 L 451 70 L 448 70 L 446 63 Z"/>
<path style="fill: rgb(17, 17, 17);" d="M 470 63 L 473 64 L 470 72 L 468 70 L 470 67 L 467 66 L 470 63 Z"/>
<path style="fill: rgb(255, 255, 255);" d="M 454 90 L 458 92 L 451 97 L 447 96 L 454 90 Z"/>
<path style="fill: rgb(255, 255, 255);" d="M 463 92 L 467 90 L 473 96 L 469 97 L 463 92 Z"/>
<path style="fill: rgb(17, 17, 17);" d="M 505 24 L 505 22 L 504 21 L 504 17 L 502 12 L 504 11 L 504 6 L 510 4 L 515 8 L 515 11 L 517 12 L 515 17 L 514 22 L 513 23 L 513 24 L 522 28 L 526 46 L 523 64 L 520 72 L 518 70 L 520 67 L 517 66 L 520 63 L 521 48 L 518 35 L 517 55 L 517 90 L 523 96 L 519 97 L 513 92 L 510 61 L 508 92 L 501 97 L 497 96 L 504 90 L 502 55 L 501 35 L 499 47 L 499 61 L 502 64 L 500 65 L 501 70 L 498 70 L 496 63 L 494 46 L 496 29 L 505 24 Z"/>
<path style="fill: rgb(255, 255, 255);" d="M 505 24 L 513 24 L 522 28 L 526 46 L 521 48 L 518 35 L 517 55 L 502 55 L 501 35 L 499 47 L 494 46 L 496 29 L 505 24 Z"/>
<path style="fill: rgb(17, 17, 17);" d="M 505 24 L 505 22 L 504 21 L 504 17 L 502 12 L 504 11 L 504 6 L 510 4 L 515 8 L 515 11 L 517 12 L 515 17 L 514 22 L 513 23 L 513 24 L 509 34 L 505 24 Z"/>
<path style="fill: rgb(255, 255, 255);" d="M 504 90 L 508 92 L 501 97 L 497 96 L 504 90 Z"/>
<path style="fill: rgb(255, 255, 255);" d="M 513 92 L 517 90 L 523 96 L 519 97 L 513 92 Z"/>
<path style="fill: none; stroke: rgb(255, 255, 255); stroke-linecap: round; stroke-linejoin: round;" d="M 505 12 L 505 15 L 509 15 L 510 12 L 511 15 L 515 15 L 515 12 L 505 12 Z"/>
<path style="fill: rgb(17, 17, 17);" d="M 34 46 L 39 47 L 39 61 L 42 64 L 40 65 L 41 70 L 38 70 L 36 63 L 34 46 Z"/>
<path style="fill: rgb(255, 255, 255);" d="M 45 24 L 53 24 L 62 28 L 66 46 L 61 48 L 58 35 L 57 55 L 42 55 L 41 35 L 39 47 L 34 46 L 36 29 L 45 24 Z"/>
<path style="fill: rgb(17, 17, 17);" d="M 45 24 L 45 22 L 44 21 L 44 17 L 42 12 L 44 11 L 44 6 L 50 4 L 55 8 L 55 11 L 57 12 L 55 17 L 54 22 L 53 23 L 53 24 L 49 34 L 45 24 Z"/>
<path style="fill: rgb(255, 255, 255);" d="M 44 90 L 48 92 L 41 97 L 37 96 L 44 90 Z"/>
<path style="fill: rgb(255, 255, 255);" d="M 53 92 L 57 90 L 63 96 L 59 97 L 53 92 Z"/>
<path style="fill: none; stroke: rgb(255, 255, 255); stroke-linecap: round; stroke-linejoin: round;" d="M 45 12 L 45 15 L 49 15 L 50 12 L 51 15 L 55 15 L 55 12 L 45 12 Z"/>
<path style="fill: rgb(17, 17, 17);" d="M 61 48 L 66 46 L 63 64 L 60 72 L 58 70 L 60 67 L 57 66 L 60 63 L 61 48 Z"/>
<path style="fill: rgb(17, 17, 17);" d="M 42 55 L 57 55 L 57 90 L 53 92 L 50 61 L 48 92 L 44 90 L 42 55 Z"/>
</svg>