<?xml version="1.0" encoding="utf-8"?>
<svg viewBox="0 0 100 100" xmlns="http://www.w3.org/2000/svg" xmlns:bx="https://boxy-svg.com">
<defs>
<linearGradient gradientUnits="userSpaceOnUse" x1="1573" y1="-722" x2="1573" y2="-115" id="gradient-0" gradientTransform="matrix(-0.45637, 0, 0, 0.295932, 956.491116, -508.337433)">
<stop offset="0" style="stop-color: rgba(113, 182, 255, 1)"/>
<stop offset="1" style="stop-color: rgba(11, 129, 255, 1)"/>
</linearGradient>
<linearGradient gradientUnits="userSpaceOnUse" x1="1573" y1="722" x2="1573" y2="1553" id="gradient-1" gradientTransform="matrix(1.542146, 0, 0, 0.496221, -2187.173076, 363.728302)">
<stop offset="0" style="stop-color: rgba(43, 41, 170, 1)"/>
<stop offset="1" style="stop-color: rgba(22, 21, 88, 1)"/>
</linearGradient>
</defs>
<rect width="100" height="100" style="fill: rgb(39, 31, 207);" y="-110"/>
<rect width="100" height="100" style="fill: rgb(217, 176, 105);" y="-110" x="110"/>
<rect width="100" height="100" style="fill: rgb(49, 203, 217);" y="-110" x="220"/>
<rect width="100" height="100" style="fill: rgb(217, 56, 51);" y="-110" x="330"/>
<rect width="100" height="100" style="fill: rgb(21, 16, 108);" x="-110" y="-110"/>
<path style="fill: rgb(255, 255, 255);" d="M -73 -87 C -85 -99 -51 -107 -54 -85 C -57 -63 -28 -56 -35 -42 C -43 -26 -73 -17 -86 -29 C -100 -43 -58 -73 -73 -87 Z"/>
<path style="fill: rgb(17, 17, 17);" d="M 215 -196 L 215 -198 L 214 -199 L 214 -203 L 212 -208 L 214 -209 L 214 -214 L 220 -216 L 225 -212 L 225 -209 L 227 -208 L 225 -203 L 224 -198 L 223 -197 L 223 -196 L 232 -192 L 236 -174 L 233 -156 L 230 -148 L 228 -150 L 230 -153 L 227 -154 L 230 -157 L 231 -172 L 228 -185 L 227 -165 L 227 -130 L 233 -124 L 229 -123 L 223 -128 L 220 -159 L 218 -128 L 211 -123 L 207 -124 L 214 -130 L 212 -165 L 211 -185 L 209 -173 L 209 -159 L 212 -156 L 210 -155 L 211 -150 L 208 -150 L 206 -157 L 204 -174 L 206 -191 L 215 -196 Z"/>
<g transform="matrix(1, 0, 0, 1, 60, -220)">
<path style="fill: rgb(255, 255, 255);" d="M 215 24 L 223 24 L 232 28 L 236 46 L 233 64 L 230 63 L 231 48 L 228 35 L 227 55 L 227 90 L 233 96 L 229 97 L 223 92 L 220 61 L 218 92 L 211 97 L 207 96 L 214 90 L 212 55 L 211 35 L 209 47 L 209 61 L 206 63 L 204 46 L 206 29 L 215 24 Z"/>
<path style="fill: rgb(17, 17, 17);" d="M 215 24 L 215 22 L 214 21 L 214 17 L 212 12 L 214 11 L 214 6 L 220 4 L 225 8 L 225 11 L 227 12 L 225 17 L 224 22 L 223 23 L 223 24 L 219 34 L 215 24 Z"/>
<path style="fill: rgb(17, 17, 17);" d="M 206 63 L 209 61 L 212 64 L 210 65 L 211 70 L 208 70 L 206 63 Z"/>
<path style="fill: rgb(17, 17, 17);" d="M 230 63 L 233 64 L 230 72 L 228 70 L 230 67 L 227 66 L 230 63 Z"/>
</g>
<path style="fill: rgb(17, 17, 17);" d="M 515 -196 L 515 -198 L 514 -199 L 514 -203 L 512 -208 L 514 -209 L 514 -214 L 520 -216 L 525 -212 L 525 -209 L 527 -208 L 525 -203 L 524 -198 L 523 -197 L 523 -196 L 532 -192 L 536 -174 L 533 -156 L 530 -148 L 528 -150 L 530 -153 L 527 -154 L 530 -157 L 531 -172 L 528 -185 L 527 -165 L 527 -130 L 533 -124 L 529 -123 L 523 -128 L 520 -159 L 518 -128 L 511 -123 L 507 -124 L 514 -130 L 512 -165 L 511 -185 L 509 -173 L 509 -159 L 512 -156 L 510 -155 L 511 -150 L 508 -150 L 506 -157 L 504 -174 L 506 -191 L 515 -196 Z"/>
<g transform="matrix(1, 0, 0, 1, 60, -220)">
<path style="fill: rgb(255, 255, 255);" d="M 275 24 L 283 24 L 292 28 L 296 46 L 293 64 L 290 63 L 291 48 L 288 35 L 287 55 L 272 55 L 271 35 L 269 47 L 269 61 L 266 63 L 264 46 L 266 29 L 275 24 Z"/>
<path style="fill: rgb(17, 17, 17);" d="M 275 24 L 275 22 L 274 21 L 274 17 L 272 12 L 274 11 L 274 6 L 280 4 L 285 8 L 285 11 L 287 12 L 285 17 L 284 22 L 283 23 L 283 24 L 279 34 L 275 24 Z"/>
<path style="fill: rgb(17, 17, 17);" d="M 266 63 L 269 61 L 272 64 L 270 65 L 271 70 L 268 70 L 266 63 Z"/>
<path style="fill: rgb(17, 17, 17);" d="M 290 63 L 293 64 L 290 72 L 288 70 L 290 67 L 287 66 L 290 63 Z"/>
<path style="fill: rgb(17, 17, 17);" d="M 272 55 L 287 55 L 287 90 L 293 96 L 289 97 L 283 92 L 280 61 L 278 92 L 271 97 L 267 96 L 274 90 L 272 55 Z"/>
</g>
<path style="fill: rgb(17, 17, 17);" d="M 395 -196 L 395 -198 L 394 -199 L 394 -203 L 392 -208 L 394 -209 L 394 -214 L 400 -216 L 405 -212 L 405 -209 L 407 -208 L 405 -203 L 404 -198 L 403 -197 L 403 -196 L 412 -192 L 416 -174 L 413 -156 L 410 -148 L 408 -150 L 410 -153 L 407 -154 L 410 -157 L 411 -172 L 408 -185 L 408 -160 L 407 -130 L 413 -124 L 409 -123 L 403 -128 L 400 -159 L 398 -128 L 391 -123 L 387 -124 L 394 -130 L 392 -160 L 391 -185 L 389 -173 L 389 -159 L 392 -156 L 390 -155 L 391 -150 L 388 -150 L 386 -157 L 384 -174 L 386 -191 L 395 -196 Z"/>
<path style="fill: rgb(255, 255, 255);" d="M 395 -196 C 395 -195 403 -195 403 -196 L 399 -180 L 395 -196 Z"/>
<path style="fill: rgb(255, 255, 255);" d="M 455 -196 L 463 -196 L 472 -192 L 476 -174 L 473 -156 L 470 -157 L 471 -172 L 468 -185 L 467 -165 L 467 -130 L 473 -124 L 469 -123 L 463 -128 L 460 -159 L 458 -128 L 451 -123 L 447 -124 L 454 -130 L 452 -165 L 451 -185 L 449 -173 L 449 -159 L 446 -157 L 444 -174 L 446 -191 L 455 -196 Z"/>
<path style="fill: rgb(17, 17, 17);" d="M 455 -196 L 455 -198 L 454 -199 L 454 -203 L 452 -208 L 454 -209 L 454 -214 L 460 -216 L 465 -212 L 465 -209 L 467 -208 L 465 -203 L 464 -198 L 463 -197 L 463 -196 L 459 -177 L 455 -196 Z"/>
<path style="fill: rgb(17, 17, 17);" d="M 446 -157 L 449 -159 L 452 -156 L 450 -155 L 451 -150 L 448 -150 L 446 -157 Z"/>
<path style="fill: rgb(17, 17, 17);" d="M 470 -157 L 473 -156 L 470 -148 L 468 -150 L 470 -153 L 467 -154 L 470 -157 Z"/>
<path style="fill: rgb(255, 255, 255);" d="M 456 -196 L 457 -193 L 462 -196 L 461 -193"/>
<path style="" d="M 395 -195 L 397 -192 L 403 -195 L 401 -192"/>
<path style="fill: rgb(255, 255, 255);" d="M 515 -196 L 523 -196 L 532 -192 L 536 -174 L 531 -172 L 528 -185 L 527 -165 L 512 -165 L 511 -185 L 509 -173 L 504 -174 L 506 -191 L 515 -196 Z"/>
<path style="fill: rgb(17, 17, 17);" d="M 515 -196 L 515 -198 L 514 -199 L 514 -203 L 512 -208 L 514 -209 L 514 -214 L 520 -216 L 525 -212 L 525 -209 L 527 -208 L 525 -203 L 524 -198 L 523 -197 L 523 -196 L 519 -186 L 515 -196 Z"/>
<path style="fill: rgb(17, 17, 17);" d="M 506 -157 L 509 -159 L 512 -156 L 510 -155 L 511 -150 L 508 -150 L 506 -157 Z"/>
<path style="fill: rgb(17, 17, 17);" d="M 530 -157 L 533 -156 L 530 -148 L 528 -150 L 530 -153 L 527 -154 L 530 -157 Z"/>
<path style="fill: rgb(255, 255, 255);" d="M 514 -130 L 518 -128 L 511 -123 L 507 -124 L 514 -130 Z"/>
<path style="fill: rgb(255, 255, 255);" d="M 523 -128 L 527 -130 L 533 -124 L 529 -123 L 523 -128 Z"/>
<path style="fill: rgb(17, 17, 17);" d="M 565 -196 L 565 -198 L 564 -199 L 564 -203 L 562 -208 L 564 -209 L 564 -214 L 570 -216 L 575 -212 L 575 -209 L 577 -208 L 575 -203 L 574 -198 L 573 -197 L 573 -196 L 582 -192 L 586 -174 L 583 -156 L 580 -148 L 578 -150 L 580 -153 L 577 -154 L 580 -157 L 581 -172 L 578 -185 L 577 -165 L 577 -130 L 583 -124 L 579 -123 L 573 -128 L 570 -159 L 568 -128 L 561 -123 L 557 -124 L 564 -130 L 562 -165 L 561 -185 L 559 -173 L 559 -159 L 562 -156 L 560 -155 L 561 -150 L 558 -150 L 556 -157 L 554 -174 L 556 -191 L 565 -196 Z"/>
<path style="fill: rgb(255, 255, 255);" d="M 565 -196 L 573 -196 L 582 -192 L 586 -174 L 581 -172 L 578 -185 L 577 -165 L 562 -165 L 561 -185 L 559 -173 L 554 -174 L 556 -191 L 565 -196 Z"/>
<path style="fill: rgb(17, 17, 17);" d="M 565 -196 L 565 -198 L 564 -199 L 564 -203 L 562 -208 L 564 -209 L 564 -214 L 570 -216 L 575 -212 L 575 -209 L 577 -208 L 575 -203 L 574 -198 L 573 -197 L 573 -196 L 569 -186 L 565 -196 Z"/>
<path style="fill: rgb(255, 255, 255);" d="M 564 -130 L 568 -128 L 561 -123 L 557 -124 L 564 -130 Z"/>
<path style="fill: rgb(255, 255, 255);" d="M 573 -128 L 577 -130 L 583 -124 L 579 -123 L 573 -128 Z"/>
<path style="fill: none; stroke: rgb(255, 255, 255); stroke-linecap: round; stroke-linejoin: round;" d="M 565 -208 L 565 -205 L 569 -205 L 570 -208 L 571 -205 L 575 -205 L 575 -208 L 565 -208 Z"/>
<path style="fill: rgb(17, 17, 17);" d="M 144 -174 L 149 -173 L 149 -159 L 152 -156 L 150 -155 L 151 -150 L 148 -150 L 146 -157 L 144 -174 Z"/>
<path style="fill: rgb(255, 255, 255);" d="M 155 -196 L 163 -196 L 172 -192 L 176 -174 L 171 -172 L 168 -185 L 167 -165 L 152 -165 L 151 -185 L 149 -173 L 144 -174 L 146 -191 L 155 -196 Z"/>
<path style="fill: rgb(17, 17, 17);" d="M 155 -196 L 155 -198 L 154 -199 L 154 -203 L 152 -208 L 154 -209 L 154 -214 L 160 -216 L 165 -212 L 165 -209 L 167 -208 L 165 -203 L 164 -198 L 163 -197 L 163 -196 L 159 -186 L 155 -196 Z"/>
<path style="fill: rgb(255, 255, 255);" d="M 154 -130 L 158 -128 L 151 -123 L 147 -124 L 154 -130 Z"/>
<path style="fill: rgb(255, 255, 255);" d="M 163 -128 L 167 -130 L 173 -124 L 169 -123 L 163 -128 Z"/>
<path style="fill: none; stroke: rgb(255, 255, 255); stroke-linecap: round; stroke-linejoin: round;" d="M 155 -208 L 155 -205 L 159 -205 L 160 -208 L 161 -205 L 165 -205 L 165 -208 L 155 -208 Z"/>
<path style="fill: rgb(17, 17, 17);" d="M 171 -172 L 176 -174 L 173 -156 L 170 -148 L 168 -150 L 170 -153 L 167 -154 L 170 -157 L 171 -172 Z"/>
<path style="fill: rgb(17, 17, 17);" d="M 152 -165 L 167 -165 L 167 -130 L 163 -128 L 160 -159 L 158 -128 L 154 -130 L 152 -165 Z"/>
<path style="fill: rgb(17, 17, 17);" d="M 45 -196 C 46 -199 43 -198 44 -203 C 41 -203 41 -209 44 -209 C 44 -220 55 -220 55 -209 C 58 -210 58 -204 55 -203 C 55 -198 53 -199 53 -196 C 67 -192 65 -169 65 -169 C 65 -169 64 -150 59 -149 C 60 -151 60 -155 58 -154 C 58 -154 58 -158 60 -159 C 61 -162 61 -177 58 -184 C 57 -180 57 -165 57 -165 L 57 -130 C 57 -130 61 -127 62 -125 C 63 -123 59 -122 58 -124 C 56 -127 54 -125 53 -128 L 50 -159 L 48 -128 C 47 -125 46 -127 42 -124 C 40 -123 37 -123 38 -125 C 39 -127 41 -128 44 -130 L 42 -165 C 42 -169 41 -181 41 -184 C 38 -179 37 -165 39 -159 C 41 -158 42 -155 42 -154 C 40 -156 39 -153 40 -149 C 37 -147 34 -169 34 -169 C 34 -169 32 -191 45 -196 Z"/>
<path style="fill: rgb(255, 255, 255);" d="M 42 -165 L 57 -165 L 58 -148 L 51 -147 L 50 -155 L 50 -147 L 42 -148 L 42 -165 Z"/>
<path style="fill: rgb(17, 17, 17);" d="M -45 -196 L -45 -198 L -46 -199 L -46 -203 L -48 -208 L -46 -209 L -46 -214 L -38 -218 L -35 -212 L -35 -209 L -33 -208 L -35 -203 L -36 -198 L -37 -197 L -37 -196 L -28 -190 L -24 -174 L -27 -157 L -29 -151 L -31 -149 L -30 -155 L -32 -154 L -30 -159 L -29 -172 L -32 -184 L -33 -165 L -33 -130 L -27 -124 L -31 -123 L -37 -128 L -40 -159 L -42 -128 L -49 -123 L -53 -124 L -46 -130 L -48 -165 L -49 -184 L -51 -173 L -51 -159 L -48 -154 L -50 -155 L -50 -149 L -52 -150 L -54 -157 L -56 -174 L -54 -190 L -45 -196 Z"/>
<path style="fill: rgb(255, 255, 255);" d="M -48 -165 L -33 -165 L -32 -148 L -39 -147 L -40 -155 L -40 -147 L -48 -148 L -48 -165 Z"/>
<rect width="461" height="100" style="fill: rgb(217, 176, 105);" x="-181"/>
<path style="fill: rgb(17, 17, 17);" d="M 45 24 L 45 22 L 44 21 L 44 17 L 42 12 L 44 11 L 44 6 L 52 2 L 55 8 L 55 11 L 57 12 L 55 17 L 54 22 L 53 23 L 53 24 L 62 30 L 66 46 L 63 63 L 61 69 L 59 71 L 60 65 L 58 66 L 60 61 L 61 48 L 58 36 L 57 55 L 57 90 L 62 96 L 59 97 L 53 92 L 50 61 L 48 92 L 41 97 L 38 96 L 44 90 L 42 55 L 41 36 L 39 47 L 39 61 L 42 66 L 40 65 L 40 71 L 38 70 L 36 63 L 34 46 L 36 30 L 45 24 Z"/>
<path style="fill: rgb(255, 255, 255);" d="M 42 55 L 57 55 L 58 72 L 51 73 L 50 65 L 50 73 L 42 72 L 42 55 Z"/>
<rect width="100" height="100" style="fill: rgb(54, 80, 229);" y="-110" x="-220"/>
<path style="fill: rgb(255, 255, 255);" d="M 94 23 C 94 23 90 14 90 14 L 92 6 L 97 3 L 103 5 C 103 5 106 10 106 10 C 106 10 105 18 105 18 L 102 24 L 94 23 Z"/>
<path style="fill: rgb(17, 17, 17);" d="M 96 25 L 96 22 L 94 18 L 93 14 L 94 12 L 95 8 L 98 6 L 101 8 L 102 12 L 103 14 L 102 18 L 100 22 L 100 25 L 107 31 L 112 46 L 110 61 L 109 67 L 107 69 L 108 63 L 106 64 L 108 59 L 109 46 L 105 36 L 104 48 L 106 54 L 105 90 L 110 95 L 107 96 L 102 91 L 102 85 L 101 79 L 102 76 L 99 58 L 96 76 L 97 79 L 96 85 L 96 91 L 90 96 L 87 95 L 93 90 L 92 54 L 94 48 L 91 37 L 89 48 L 89 60 L 92 64 L 90 63 L 90 69 L 89 68 L 87 61 L 86 47 L 89 31 L 96 25 Z"/>
<path style="fill: rgb(255, 255, 255);" d="M 91 38 L 95 40 L 98 37 L 101 40 L 105 38 L 106 29 C 106 29 104 34 104 34 L 98 36 L 92 34 L 91 28 L 91 38 Z"/>
<path style="fill: rgb(255, 255, 255);" d="M 93 50 L 92 53 L 98 60 L 100 60 L 106 53 L 105 50 L 93 50 Z"/>
<g transform="matrix(1, 0, 0, 1, 514.114929, 309.785828)"/>
<rect x="-741" y="-722" width="1959" height="607" style="fill: url(#gradient-0);" transform="matrix(1, 0, 0, -1, 0, 0)"/>
<g transform="matrix(1, 0, 0, 1, 10, 90)">
<path style="fill: none; stroke: rgb(255, 255, 255); stroke-width: 4px; stroke-linejoin: round; stroke-linecap: round;" d="M 609 541 L 656 498 L 387 536"/>
<path style="fill: rgb(216, 216, 216); stroke: rgb(255, 255, 255); stroke-width: 4px; stroke-linecap: round; stroke-linejoin: round;" d="M 552 545 L 561 512"/>
<path style="fill: rgb(216, 216, 216); stroke: rgb(255, 255, 255); stroke-width: 4px; stroke-linecap: round; stroke-linejoin: round;" d="M 487 548 L 493 521"/>
</g>
<rect x="-741" y="722" width="1959" height="412" style="fill: url(#gradient-1);"/>
<path style="fill: rgb(255, 255, 255);" d="M -233 670 L 624 629 L 459 783 L 273 825 C 273 825 12 819 12 818 C 12 817 -179 749 -179 749 L -233 670 Z"/>
<path style="fill: rgb(255, 255, 255);" d="M 36 667 L 96 559 L 276 557 L 483 647 L 36 667 Z"/>
<path style="fill: rgb(244, 244, 244);" d="M -217 669 L -188 705 L 54 703 L 89 583 L 83 583 L 42 657 L -217 669 Z"/>
<path style="fill: rgb(205, 190, 160);" d="M -200 690 L -189 705 L 55 703 L 60 684 L -200 690 Z"/>
<g transform="matrix(1, 0, 0, 1, -92.376221, 424.197418)">
<path style="fill: rgb(17, 17, 17);" d="M -4 201 L -4 199 L -5 198 L -5 194 L -7 189 L -5 188 L -5 183 L 3 179 L 6 185 L 6 188 L 8 189 L 6 194 L 5 199 L 4 200 L 4 201 L 13 207 L 17 223 L 14 240 L 12 246 L 10 248 L 11 242 L 9 243 L 11 238 L 12 225 L 9 213 L 8 232 L 8 267 L 13 273 L 10 274 L 4 269 L 1 238 L -1 269 L -8 274 L -11 273 L -5 267 L -7 232 L -8 213 L -10 224 L -10 238 L -7 243 L -9 242 L -9 248 L -11 247 L -13 240 L -15 223 L -13 207 L -4 201 Z"/>
<path style="fill: rgb(255, 255, 255);" d="M -7 232 L 8 232 L 9 249 L 2 250 L 1 242 L 1 250 L -7 249 L -7 232 Z"/>
</g>
<path style="fill: rgb(157, 147, 123);" d="M 98 584 L 62 703 L 109 739 L 348 740 L 416 635 L 287 583 L 98 584 Z"/>
<path style="fill: rgb(205, 190, 160);" d="M 385 683 L 93 685 L 71 673 L 62 703 L 109 739 L 348 741 L 385 683 Z"/>
<path style="fill: rgb(204, 191, 160);" d="M 289 593 L 381 632 L 244 633 L 239 593 L 289 593 Z"/>
<g transform="matrix(1, 0, 0, 1, 331.741211, 447.420502)">
<path style="fill: rgb(17, 17, 17);" d="M -4 185 L -4 183 L -5 182 L -5 178 L -7 173 L -5 172 L -5 167 L 3 163 L 6 169 L 6 172 L 8 173 L 6 178 L 5 183 L 4 184 L 4 185 L 13 191 L 17 207 L 14 224 L 12 230 L 10 232 L 11 226 L 9 227 L 11 222 L 12 209 L 9 197 L 8 216 L 8 251 L 13 257 L 10 258 L 4 253 L 1 222 L -1 253 L -8 258 L -11 257 L -5 251 L -7 216 L -8 197 L -10 208 L -10 222 L -7 227 L -9 226 L -9 232 L -11 231 L -13 224 L -15 207 L -13 191 L -4 185 Z"/>
<path style="fill: rgb(255, 255, 255);" d="M -7 216 L 8 216 L 9 233 L 2 234 L 1 226 L 1 234 L -7 233 L -7 216 Z"/>
</g>
<g transform="matrix(1, 0, 0, 1, 291.131104, 435.614014)">
<path style="fill: rgb(17, 17, 17);" d="M -4 185 L -4 183 L -5 182 L -5 178 L -7 173 L -5 172 L -5 167 L 3 163 L 6 169 L 6 172 L 8 173 L 6 178 L 5 183 L 4 184 L 4 185 L 13 191 L 17 207 L 14 224 L 12 230 L 10 232 L 11 226 L 9 227 L 11 222 L 12 209 L 9 197 L 8 216 L 8 251 L 13 257 L 10 258 L 4 253 L 1 222 L -1 253 L -8 258 L -11 257 L -5 251 L -7 216 L -8 197 L -10 208 L -10 222 L -7 227 L -9 226 L -9 232 L -11 231 L -13 224 L -15 207 L -13 191 L -4 185 Z"/>
<path style="fill: rgb(255, 255, 255);" d="M -7 216 L 8 216 L 9 233 L 2 234 L 1 226 L 1 234 L -7 233 L -7 216 Z"/>
</g>
<g transform="matrix(0.084223, -0.996448, 0.996448, 0.084223, -29.935547, 681.585144)" bx:origin="0 0">
<path style="fill: rgb(17, 17, 17);" d="M -18 196 L -18 194 L -19 193 L -19 189 L -21 184 L -19 183 L -19 178 L -11 174 L -8 180 L -8 183 L -6 184 L -8 189 L -9 194 L -10 195 L -10 196 L -1 202 L 3 218 L 0 235 L -2 241 L -4 243 L -3 237 L -5 238 L -3 233 L -2 220 L -5 208 L -6 227 L -6 262 L -1 268 L -4 269 L -10 264 L -13 233 L -15 264 L -22 269 L -25 268 L -19 262 L -21 227 L -22 208 L -24 219 L -24 233 L -21 238 L -23 237 L -23 243 L -25 242 L -27 235 L -29 218 L -27 202 L -18 196 Z"/>
<path style="fill: rgb(255, 255, 255);" d="M -21 227 L -6 227 L -5 244 L -12 245 L -13 237 L -13 245 L -21 244 L -21 227 Z"/>
</g>
<path style="fill: rgb(205, 190, 160);" d="M 598 630 L 570 651 L 445 638 L 598 630 Z"/>
<path style="fill: rgb(255, 255, 255);" d="M 204 575 L 280 564 L 245 506 L 218 516 L 204 575 Z"/>
<path style="fill: rgb(205, 190, 160);" d="M 87 576 L 204 575 L 208 558 L 95 558 L 87 576 Z"/>
<g transform="matrix(1, 0, 0, 1, 175.147461, 310.172943)">
<path style="fill: rgb(17, 17, 17);" d="M -4 185 L -4 183 L -5 182 L -5 178 L -7 173 L -5 172 L -5 167 L 3 163 L 6 169 L 6 172 L 8 173 L 6 178 L 5 183 L 4 184 L 4 185 L 13 191 L 17 207 L 14 224 L 12 230 L 10 232 L 11 226 L 9 227 L 11 222 L 12 209 L 9 197 L 8 216 L 8 251 L 13 257 L 10 258 L 4 253 L 1 222 L -1 253 L -8 258 L -11 257 L -5 251 L -7 216 L -8 197 L -10 208 L -10 222 L -7 227 L -9 226 L -9 232 L -11 231 L -13 224 L -15 207 L -13 191 L -4 185 Z"/>
<path style="fill: rgb(255, 255, 255);" d="M -7 216 L 8 216 L 9 233 L 2 234 L 1 226 L 1 234 L -7 233 L -7 216 Z"/>
</g>
<path style="fill: rgb(156, 147, 123);" d="M 415 652 L 360 743 L 455 769 L 558 668 L 415 652 Z"/>
<path style="fill: rgb(205, 190, 160);" d="M 392 690 L 360 743 L 455 769 L 478 747 L 416 732 L 392 690 Z"/>
<g transform="matrix(1, 0, 0, 1, 410.208862, 490.816895)">
<path style="fill: rgb(17, 17, 17);" d="M 33 194 L 33 192 L 32 191 L 32 187 L 30 182 L 32 181 L 32 176 L 40 172 L 43 178 L 43 181 L 45 182 L 43 187 L 42 192 L 41 193 L 41 194 L 50 200 L 54 216 L 51 233 L 49 239 L 47 241 L 48 235 L 46 236 L 48 231 L 49 218 L 46 206 L 45 225 L 45 260 L 50 266 L 47 267 L 41 262 L 38 231 L 36 262 L 29 267 L 26 266 L 32 260 L 30 225 L 29 206 L 27 217 L 27 231 L 30 236 L 28 235 L 28 241 L 26 240 L 24 233 L 22 216 L 24 200 L 33 194 Z"/>
<path style="fill: rgb(255, 255, 255);" d="M 30 225 L 45 225 L 46 242 L 39 243 L 38 235 L 38 243 L 30 242 L 30 225 Z"/>
</g>
<g transform="matrix(1, 0, 0, 1, 523.28064, 289.544159)">
<path style="fill: rgb(17, 17, 17);" d="M 12 276 L 12 274 L 11 273 L 11 269 L 9 264 L 11 263 L 11 258 L 19 254 L 22 260 L 22 263 L 24 264 L 22 269 L 21 274 L 20 275 L 20 276 L 29 282 L 33 298 L 30 315 L 28 321 L 26 323 L 27 317 L 25 318 L 27 313 L 28 300 L 25 288 L 24 307 L 24 342 L 29 348 L 26 349 L 20 344 L 17 313 L 15 344 L 8 349 L 5 348 L 11 342 L 9 307 L 8 288 L 6 299 L 6 313 L 9 318 L 7 317 L 7 323 L 5 322 L 3 315 L 1 298 L 3 282 L 12 276 Z"/>
<path style="fill: rgb(255, 255, 255);" d="M 9 307 L 24 307 L 25 324 L 18 325 L 17 317 L 17 325 L 9 324 L 9 307 Z"/>
</g>
<path style="fill: rgb(204, 191, 160);" d="M 104 594 L 93 634 L 234 633 L 229 593 L 104 594 Z"/>
<g transform="matrix(1, 0, 0, 1, 114.623779, 435.197418)">
<path style="fill: rgb(17, 17, 17);" d="M -4 190 L -4 188 L -5 187 L -5 183 L -7 178 L -5 177 L -5 172 L 3 168 L 6 174 L 6 177 L 8 178 L 6 183 L 5 188 L 4 189 L 4 190 L 13 196 L 17 212 L 14 229 L 12 235 L 10 237 L 11 231 L 9 232 L 11 227 L 12 214 L 9 202 L 8 221 L 8 256 L 13 262 L 10 263 L 4 258 L 1 227 L -1 258 L -8 263 L -11 262 L -5 256 L -7 221 L -8 202 L -10 213 L -10 227 L -7 232 L -9 231 L -9 237 L -11 236 L -13 229 L -15 212 L -13 196 L -4 190 Z"/>
<path style="fill: rgb(255, 255, 255);" d="M -7 221 L 8 221 L 9 238 L 2 239 L 1 231 L 1 239 L -7 238 L -7 221 Z"/>
</g>
<path style="fill: rgb(16, 15, 62);" d="M -739 1068 L -179 1018 L 320 1070 L 547 1006 L 740 1024 L 1217 1037 L 1216 1133 L -739 1132 L -739 1068 Z"/>
<g transform="matrix(1, 0, 0, 1, 250.131104, 430.614014)">
<path style="fill: rgb(17, 17, 17);" d="M -4 190 L -4 188 L -5 187 L -5 183 L -7 178 L -5 177 L -5 172 L 3 168 L 6 174 L 6 177 L 8 178 L 6 183 L 5 188 L 4 189 L 4 190 L 13 196 L 17 212 L 14 229 L 12 235 L 10 237 L 11 231 L 9 232 L 11 227 L 12 214 L 9 202 L 8 221 L 8 256 L 13 262 L 10 263 L 4 258 L 1 227 L -1 258 L -8 263 L -11 262 L -5 256 L -7 221 L -8 202 L -10 213 L -10 227 L -7 232 L -9 231 L -9 237 L -11 236 L -13 229 L -15 212 L -13 196 L -4 190 Z"/>
<path style="fill: rgb(255, 255, 255);" d="M -7 221 L 8 221 L 9 238 L 2 239 L 1 231 L 1 239 L -7 238 L -7 221 Z"/>
</g>
<path style="fill: rgb(244, 244, 244);" d="M -167 742 L -184 720 L 54 721 L 94 752 L 90 804 L 16 803 L -167 742 Z"/>
<path style="fill: rgb(244, 244, 244);" d="M 435 777 L 346 753 L 107 753 L 103 804 L 272 810 L 435 777 Z"/>
<path style="fill: rgb(25, 23, 95);" d="M -130 767 L -169 778 C -169 778 -170 823 -170 823 L -84 823 C -84 823 -63 791 -63 791"/>
<path style="fill: rgb(255, 255, 255);" d="M 104 504 L 113 569 L 154 569 L 149 540 L 125 547 C 125 547 114 493 114 493 L 104 504 Z"/>
</svg>