<?xml version="1.0" encoding="utf-8"?>
<svg viewBox="0 0 100 100" xmlns="http://www.w3.org/2000/svg">
<rect width="540" height="100" style="fill: rgb(113, 183, 255);" y="-220" x="220"/>
<path style="fill: rgb(255, 255, 255);" d="M 405 -196 L 413 -196 L 422 -192 L 426 -174 L 423 -156 L 420 -157 L 421 -172 L 418 -185 L 417 -165 L 417 -130 L 423 -124 L 419 -123 L 413 -128 L 410 -159 L 408 -128 L 401 -123 L 397 -124 L 404 -130 L 402 -165 L 401 -185 L 399 -173 L 399 -159 L 396 -157 L 394 -174 L 396 -191 L 405 -196 Z"/>
<path style="fill: rgb(17, 17, 17);" d="M 405 -196 L 405 -198 L 404 -199 L 404 -203 L 402 -208 L 404 -209 L 404 -214 L 410 -216 L 415 -212 L 415 -209 L 417 -208 L 415 -203 L 414 -198 L 413 -197 L 413 -196 L 409 -186 L 405 -196 Z"/>
<path style="fill: rgb(17, 17, 17);" d="M 396 -157 L 399 -159 L 402 -156 L 400 -155 L 401 -150 L 398 -150 L 396 -157 Z"/>
<path style="fill: rgb(17, 17, 17);" d="M 420 -157 L 423 -156 L 420 -148 L 418 -150 L 420 -153 L 417 -154 L 420 -157 Z"/>
<path style="fill: rgb(17, 17, 17);" d="M 605 -196 L 605 -198 L 604 -199 L 604 -203 L 602 -208 L 604 -209 L 604 -214 L 610 -216 L 615 -212 L 615 -209 L 617 -208 L 615 -203 L 614 -198 L 613 -197 L 613 -196 L 622 -192 L 626 -174 L 623 -156 L 620 -148 L 618 -150 L 620 -153 L 617 -154 L 620 -157 L 621 -172 L 618 -185 L 617 -165 L 617 -130 L 623 -124 L 619 -123 L 613 -128 L 610 -159 L 608 -128 L 601 -123 L 597 -124 L 604 -130 L 602 -165 L 601 -185 L 599 -173 L 599 -159 L 602 -156 L 600 -155 L 601 -150 L 598 -150 L 596 -157 L 594 -174 L 596 -191 L 605 -196 Z"/>
<path style="fill: rgb(255, 255, 255);" d="M 455 -196 L 463 -196 L 472 -192 L 476 -174 L 473 -156 L 470 -157 L 471 -172 L 468 -185 L 467 -165 L 452 -165 L 451 -185 L 449 -173 L 449 -159 L 446 -157 L 444 -174 L 446 -191 L 455 -196 Z"/>
<path style="fill: rgb(17, 17, 17);" d="M 455 -196 L 455 -198 L 454 -199 L 454 -203 L 452 -208 L 454 -209 L 454 -214 L 460 -216 L 465 -212 L 465 -209 L 467 -208 L 465 -203 L 464 -198 L 463 -197 L 463 -196 L 459 -186 L 455 -196 Z"/>
<path style="fill: rgb(17, 17, 17);" d="M 446 -157 L 449 -159 L 452 -156 L 450 -155 L 451 -150 L 448 -150 L 446 -157 Z"/>
<path style="fill: rgb(17, 17, 17);" d="M 470 -157 L 473 -156 L 470 -148 L 468 -150 L 470 -153 L 467 -154 L 470 -157 Z"/>
<path style="fill: rgb(17, 17, 17);" d="M 452 -165 L 467 -165 L 467 -130 L 473 -124 L 469 -123 L 463 -128 L 460 -159 L 458 -128 L 451 -123 L 447 -124 L 454 -130 L 452 -165 Z"/>
<path style="fill: rgb(17, 17, 17);" d="M 505 -196 L 505 -198 L 504 -199 L 504 -203 L 502 -208 L 504 -209 L 504 -214 L 510 -216 L 515 -212 L 515 -209 L 517 -208 L 515 -203 L 514 -198 L 513 -197 L 513 -196 L 522 -192 L 526 -174 L 523 -156 L 520 -148 L 518 -150 L 520 -153 L 517 -154 L 520 -157 L 521 -172 L 518 -185 L 518 -160 L 517 -130 L 523 -124 L 519 -123 L 513 -128 L 510 -159 L 508 -128 L 501 -123 L 497 -124 L 504 -130 L 502 -160 L 501 -185 L 499 -173 L 499 -159 L 502 -156 L 500 -155 L 501 -150 L 498 -150 L 496 -157 L 494 -174 L 496 -191 L 505 -196 Z"/>
<path style="fill: rgb(255, 255, 255);" d="M 505 -196 C 505 -195 513 -195 513 -196 L 509 -180 L 505 -196 Z"/>
<path style="fill: rgb(255, 255, 255);" d="M 555 -196 L 563 -196 L 572 -192 L 576 -174 L 573 -156 L 570 -157 L 571 -172 L 568 -185 L 567 -165 L 567 -130 L 573 -124 L 569 -123 L 563 -128 L 560 -159 L 558 -128 L 551 -123 L 547 -124 L 554 -130 L 552 -165 L 551 -185 L 549 -173 L 549 -159 L 546 -157 L 544 -174 L 546 -191 L 555 -196 Z"/>
<path style="fill: rgb(17, 17, 17);" d="M 555 -196 L 555 -198 L 554 -199 L 554 -203 L 552 -208 L 554 -209 L 554 -214 L 560 -216 L 565 -212 L 565 -209 L 567 -208 L 565 -203 L 564 -198 L 563 -197 L 563 -196 L 559 -177 L 555 -196 Z"/>
<path style="fill: rgb(17, 17, 17);" d="M 546 -157 L 549 -159 L 552 -156 L 550 -155 L 551 -150 L 548 -150 L 546 -157 Z"/>
<path style="fill: rgb(17, 17, 17);" d="M 570 -157 L 573 -156 L 570 -148 L 568 -150 L 570 -153 L 567 -154 L 570 -157 Z"/>
<path style="fill: rgb(255, 255, 255);" d="M 556 -196 L 557 -193 L 562 -196 L 561 -193"/>
<path style="" d="M 505 -195 L 507 -192 L 513 -195 L 511 -192"/>
<path style="fill: rgb(255, 255, 255);" d="M 605 -196 L 613 -196 L 622 -192 L 626 -174 L 621 -172 L 618 -185 L 617 -165 L 602 -165 L 601 -185 L 599 -173 L 594 -174 L 596 -191 L 605 -196 Z"/>
<path style="fill: rgb(17, 17, 17);" d="M 605 -196 L 605 -198 L 604 -199 L 604 -203 L 602 -208 L 604 -209 L 604 -214 L 610 -216 L 615 -212 L 615 -209 L 617 -208 L 615 -203 L 614 -198 L 613 -197 L 613 -196 L 609 -186 L 605 -196 Z"/>
<path style="fill: rgb(17, 17, 17);" d="M 596 -157 L 599 -159 L 602 -156 L 600 -155 L 601 -150 L 598 -150 L 596 -157 Z"/>
<path style="fill: rgb(17, 17, 17);" d="M 620 -157 L 623 -156 L 620 -148 L 618 -150 L 620 -153 L 617 -154 L 620 -157 Z"/>
<path style="fill: rgb(255, 255, 255);" d="M 604 -130 L 608 -128 L 601 -123 L 597 -124 L 604 -130 Z"/>
<path style="fill: rgb(255, 255, 255);" d="M 613 -128 L 617 -130 L 623 -124 L 619 -123 L 613 -128 Z"/>
<path style="fill: rgb(17, 17, 17);" d="M 344 -174 L 349 -173 L 349 -159 L 352 -156 L 350 -155 L 351 -150 L 348 -150 L 346 -157 L 344 -174 Z"/>
<path style="fill: rgb(255, 255, 255);" d="M 355 -196 L 363 -196 L 372 -192 L 376 -174 L 371 -172 L 368 -185 L 367 -165 L 352 -165 L 351 -185 L 349 -173 L 344 -174 L 346 -191 L 355 -196 Z"/>
<path style="fill: rgb(17, 17, 17);" d="M 355 -196 L 355 -198 L 354 -199 L 354 -203 L 352 -208 L 354 -209 L 354 -214 L 360 -216 L 365 -212 L 365 -209 L 367 -208 L 365 -203 L 364 -198 L 363 -197 L 363 -196 L 359 -186 L 355 -196 Z"/>
<path style="fill: rgb(255, 255, 255);" d="M 354 -130 L 358 -128 L 351 -123 L 347 -124 L 354 -130 Z"/>
<path style="fill: rgb(255, 255, 255);" d="M 363 -128 L 367 -130 L 373 -124 L 369 -123 L 363 -128 Z"/>
<path style="fill: none; stroke: rgb(255, 255, 255); stroke-linecap: round; stroke-linejoin: round;" d="M 355 -208 L 355 -205 L 359 -205 L 360 -208 L 361 -205 L 365 -205 L 365 -208 L 355 -208 Z"/>
<path style="fill: rgb(17, 17, 17);" d="M 371 -172 L 376 -174 L 373 -156 L 370 -148 L 368 -150 L 370 -153 L 367 -154 L 370 -157 L 371 -172 Z"/>
<path style="fill: rgb(17, 17, 17);" d="M 352 -165 L 367 -165 L 367 -130 L 363 -128 L 360 -159 L 358 -128 L 354 -130 L 352 -165 Z"/>
<path style="fill: rgb(17, 17, 17);" d="M 301 -196 C 302 -199 299 -198 300 -203 C 297 -203 297 -209 300 -209 C 300 -220 311 -220 311 -209 C 314 -210 314 -204 311 -203 C 311 -198 309 -199 309 -196 C 323 -192 321 -169 321 -169 C 321 -169 319 -147 315 -149 C 316 -151 318 -156 314 -153 C 314 -153 314 -155 316 -157 C 317 -160 317 -177 314 -184 C 313 -180 313 -165 313 -165 L 313 -130 C 313 -130 317 -127 318 -125 C 319 -123 315 -122 314 -124 C 312 -127 310 -125 309 -128 L 306 -159 L 304 -128 C 303 -125 302 -127 298 -124 C 296 -123 293 -123 294 -125 C 295 -127 297 -128 300 -130 L 298 -165 C 298 -169 297 -181 297 -184 C 294 -179 293 -164 295 -158 C 297 -157 298 -155 298 -154 C 296 -156 295 -153 296 -149 C 293 -147 290 -169 290 -169 C 290 -169 288 -191 301 -196 Z"/>
<path style="fill: rgb(255, 255, 255);" d="M 298 -165 L 313 -165 L 314 -148 L 307 -147 L 306 -155 L 306 -147 L 298 -148 L 298 -165 Z"/>
<path style="fill: rgb(17, 17, 17);" d="M 251 -196 L 251 -198 L 250 -199 L 250 -203 L 248 -208 L 250 -209 L 250 -214 L 258 -218 L 261 -212 L 261 -209 L 263 -208 L 261 -203 L 260 -198 L 259 -197 L 259 -196 L 268 -190 L 272 -174 L 269 -157 L 267 -151 L 265 -149 L 266 -155 L 264 -154 L 266 -159 L 267 -172 L 264 -184 L 263 -165 L 263 -130 L 269 -124 L 265 -123 L 259 -128 L 256 -159 L 254 -128 L 247 -123 L 243 -124 L 250 -130 L 248 -165 L 247 -184 L 245 -173 L 245 -159 L 248 -154 L 246 -155 L 246 -149 L 244 -150 L 242 -157 L 240 -174 L 242 -190 L 251 -196 Z"/>
<path style="fill: rgb(255, 255, 255);" d="M 248 -165 L 263 -165 L 264 -148 L 257 -147 L 256 -155 L 256 -147 L 248 -148 L 248 -165 Z"/>
<rect width="100" height="100" style="fill: rgb(113, 183, 255);" x="110"/>
<path style="fill: rgb(17, 17, 17);" d="M 155 26 L 155 24 L 154 23 L 154 19 L 152 14 L 154 13 L 154 8 L 162 4 L 165 10 L 165 13 L 167 14 L 165 19 L 164 24 L 163 25 L 163 26 L 172 32 L 176 48 L 173 65 L 171 71 L 169 73 L 170 67 L 168 68 L 170 63 L 171 49 L 168 38 L 167 57 L 167 92 L 172 98 L 169 99 L 163 94 L 160 63 L 158 94 L 151 99 L 148 98 L 154 92 L 152 57 L 151 38 L 149 49 L 149 63 L 152 68 L 150 67 L 150 73 L 148 72 L 146 65 L 144 48 L 146 32 L 155 26 Z"/>
<path style="fill: rgb(255, 255, 255);" d="M 152 57 L 167 57 L 168 74 L 161 75 L 160 67 L 160 75 L 152 74 L 152 57 Z"/>
<g transform="matrix(1, 0, 0, 1, 514.114929, 309.785828)"/>
<rect width="100" height="100" style="fill: rgb(113, 183, 255);" x="330"/>
<path d="M 388 23 C 388 29 386 33 382 33 C 378 33 375 29 375 23 C 375 16 372 16 381 12 C 390 8 388 17 388 23 Z" style="fill: rgb(17, 17, 17);"/>
<rect width="100" height="100" style="fill: rgb(113, 183, 255);" x="440"/>
<rect width="100" height="100" style="fill: rgb(113, 183, 255);" x="550"/>
<rect width="100" height="100" style="fill: rgb(113, 183, 255);" y="-110" x="110"/>
<g transform="matrix(1, 0, 0, 1, 110, 0)">
<g transform="matrix(1, 0, 0, 1, 0.505981, -109.92009)">
<path style="fill: rgb(17, 17, 17);" d="M 45 24 C 46 21 43 22 44 17 C 41 17 41 11 44 11 C 44 0 55 0 55 11 C 58 10 58 16 55 17 C 55 22 53 21 53 24 C 67 28 65 51 65 51 C 65 51 63 73 59 71 C 60 69 62 64 58 67 C 58 67 58 65 60 63 C 61 60 61 43 58 36 C 57 40 57 55 57 55 L 57 90 C 57 90 61 93 62 95 C 63 97 59 98 58 96 C 56 93 54 95 53 92 L 50 61 L 48 92 C 47 95 46 93 42 96 C 40 97 37 97 38 95 C 39 93 41 92 44 90 L 42 55 C 42 51 41 39 41 36 C 38 41 37 56 39 62 C 41 63 42 65 42 66 C 40 64 39 67 40 71 C 37 73 34 51 34 51 C 34 51 32 29 45 24 Z"/>
<path style="fill: rgb(255, 255, 255);" d="M 42 55 L 57 55 L 58 72 L 51 73 L 50 65 L 50 73 L 42 72 L 42 55 Z"/>
</g>
</g>
<rect width="100" height="100" style="fill: rgb(113, 183, 255);" y="-110"/>
<path style="fill: rgb(255, 255, 255);" d="M 46 -86 C 47 -89 44 -88 45 -93 C 42 -93 42 -99 45 -99 C 45 -110 56 -110 56 -99 C 59 -100 59 -94 56 -93 C 56 -88 54 -89 54 -86 C 68 -82 66 -59 66 -59 C 66 -59 64 -37 60 -39 C 61 -41 63 -46 59 -43 C 59 -43 59 -45 61 -47 C 62 -50 62 -67 59 -74 C 58 -70 58 -55 58 -55 L 58 -20 C 58 -20 62 -17 63 -15 C 64 -13 60 -12 59 -14 C 57 -17 55 -15 54 -18 L 51 -49 L 49 -18 C 48 -15 47 -17 43 -14 C 41 -13 38 -13 39 -15 C 40 -17 42 -18 45 -20 L 43 -55 C 43 -59 42 -71 42 -74 C 39 -69 38 -54 40 -48 C 42 -47 43 -45 43 -44 C 41 -46 40 -43 41 -39 C 38 -37 35 -59 35 -59 C 35 -59 33 -81 46 -86 Z"/>
<path style="fill: rgb(17, 17, 17);" d="M 43 -55 L 58 -55 L 59 -38 L 52 -37 L 51 -45 L 51 -37 L 43 -38 L 43 -55 Z"/>
<rect width="100" height="100" style="fill: rgb(113, 183, 255);" y="-220" x="110"/>
<path style="fill: rgb(17, 17, 17);" d="M 155 -195 C 157 -197 154 -197 154 -198 C 154 -199 154 -201 154 -202 C 154 -204 152 -205 152 -207 C 152 -208 154 -207 154 -208 C 155 -212 150 -219 162 -217 C 168 -216 164 -211 165 -208 C 165 -207 167 -208 167 -207 C 167 -205 166 -204 165 -202 C 165 -200 165 -199 164 -197 C 164 -197 162 -196 163 -195 C 166 -193 170 -192 172 -189 C 175 -184 176 -178 176 -173 C 176 -167 174 -162 173 -156 C 173 -154 172 -152 171 -150 C 171 -149 169 -147 169 -148 C 169 -150 170 -152 170 -154 C 170 -155 168 -152 168 -153 C 168 -155 170 -156 170 -158 C 171 -162 171 -167 171 -171 C 171 -175 170 -187 168 -183 C 165 -177 167 -170 167 -164 C 167 -152 166 -141 167 -129 C 167 -126 171 -126 172 -123 C 172 -122 170 -122 169 -122 C 167 -123 164 -124 163 -127 C 160 -137 170 -158 160 -158 C 150 -158 161 -137 158 -127 C 157 -124 154 -123 151 -122 C 150 -122 148 -122 148 -123 C 149 -126 154 -126 154 -129 C 155 -141 153 -152 152 -164 C 152 -170 153 -177 151 -183 C 150 -186 149 -176 149 -172 C 149 -167 148 -163 149 -158 C 149 -156 152 -155 152 -153 C 152 -152 150 -155 150 -154 C 149 -152 151 -150 150 -148 C 150 -147 148 -148 148 -149 C 147 -151 146 -154 146 -156 C 145 -162 144 -167 144 -173 C 144 -178 144 -184 146 -189 C 148 -192 152 -193 155 -195 Z"/>
<path style="fill: rgb(255, 255, 255);" d="M 152 -164 C 152 -162 167 -162 167 -164 C 168 -164 168 -147 168 -147 C 169 -145 161 -145 161 -146 L 160 -154 L 160 -146 C 159 -145 151 -146 152 -147 C 152 -147 151 -164 152 -164 Z"/>
<rect width="100" height="100" style="fill: rgb(113, 183, 255);" y="-330" x="110"/>
<path style="fill: rgb(17, 17, 17);" d="M 156 -305 C 156 -308 154 -308 154 -312 C 154 -314 150 -317 154 -318 C 155 -322 147 -330 162 -327 C 168 -326 164 -321 165 -318 C 168 -319 166 -314 165 -312 C 165 -308 162 -308 163 -305 C 166 -303 170 -302 172 -299 C 175 -294 176 -287 176 -282 C 176 -276 175 -272 174 -266 C 174 -263 171 -257 170 -258 C 169 -260 171 -261 171 -264 C 171 -265 169 -262 169 -263 C 169 -265 171 -266 172 -268 C 173 -272 171 -277 171 -281 C 171 -285 170 -297 168 -293 C 165 -287 166 -280 167 -274 C 169 -262 167 -251 167 -239 C 167 -236 171 -236 172 -233 C 172 -232 170 -232 169 -232 C 167 -233 164 -234 163 -237 C 161 -247 170 -268 160 -268 C 150 -268 161 -247 158 -237 C 157 -234 154 -233 151 -232 C 150 -232 148 -232 148 -233 C 149 -236 154 -236 154 -239 C 155 -251 153 -262 152 -274 C 152 -280 153 -287 151 -293 C 150 -296 149 -286 149 -282 C 149 -277 147 -273 148 -268 C 148 -266 151 -265 151 -263 C 151 -262 149 -265 149 -264 C 148 -262 151 -260 150 -258 C 149 -257 146 -264 146 -266 C 145 -272 144 -277 144 -283 C 144 -288 144 -294 146 -299 C 148 -302 153 -303 156 -305 Z"/>
<path style="fill: rgb(255, 255, 255);" d="M 152 -274 C 152 -272 167 -272 167 -274 C 169 -274 168 -257 168 -257 C 170 -254 161 -255 161 -256 L 160 -264 L 159 -256 C 158 -255 150 -255 152 -257 C 152 -257 151 -274 152 -274 Z"/>
<rect width="100" height="100" style="fill: rgb(113, 183, 255);" y="-330"/>
<path style="fill: rgb(255, 255, 255);" d="M 46 -305 C 46 -308 44 -308 44 -312 C 44 -314 40 -317 44 -318 C 45 -322 37 -330 52 -327 C 58 -326 54 -321 55 -318 C 58 -319 56 -314 55 -312 C 55 -308 52 -308 53 -305 C 56 -303 60 -302 62 -299 C 65 -294 66 -288 66 -283 C 66 -277 64 -272 63 -266 C 64 -263 60 -257 59 -258 C 58 -260 60 -262 60 -264 C 60 -265 58 -262 58 -263 C 58 -265 60 -266 61 -268 C 62 -272 61 -277 61 -281 C 61 -285 60 -297 58 -293 C 55 -287 56 -280 57 -274 C 59 -262 57 -251 57 -239 C 57 -236 61 -236 62 -233 C 62 -232 60 -232 59 -232 C 57 -233 54 -234 53 -237 C 50 -247 60 -268 50 -268 C 40 -268 51 -247 48 -237 C 47 -234 44 -233 41 -232 C 40 -232 38 -232 38 -233 C 39 -236 44 -236 44 -239 C 45 -251 43 -262 42 -274 C 42 -280 43 -287 41 -293 C 40 -296 39 -286 39 -282 C 39 -277 37 -273 38 -268 C 38 -266 41 -265 41 -263 C 41 -262 39 -265 39 -264 C 38 -262 41 -260 40 -258 C 39 -257 36 -264 36 -266 C 35 -272 34 -277 34 -283 C 34 -288 34 -294 36 -299 C 38 -302 43 -303 46 -305 Z"/>
<path style="fill: rgb(17, 17, 17);" d="M 42 -274 C 42 -272 57 -272 57 -274 C 59 -274 58 -257 58 -257 C 60 -254 51 -255 51 -256 L 50 -264 L 50 -256 C 49 -255 40 -255 42 -257 C 42 -257 41 -274 42 -274 Z"/>
<rect width="100" height="100" style="fill: rgb(113, 183, 255);" y="-330" x="220"/>
<path style="fill: rgb(17, 17, 17);" d="M 266 -323 C 261 -325 251 -310 267 -297 C 278 -292 286 -329 266 -323 Z"/>
<path style="fill: rgb(255, 255, 255);" d="M 263 -317 C 258 -306 266 -308 266 -300 C 259 -295 254 -278 257 -268 C 257 -263 259 -260 260 -259 C 261 -258 259 -266 261 -265 C 263 -264 260 -268 259 -269 C 257 -277 260 -285 263 -292 C 263 -287 268 -282 264 -275 C 262 -271 261 -253 264 -238 C 264 -236 255 -236 259 -234 C 263 -232 268 -236 267 -239 C 266 -244 266 -269 271 -269 C 276 -269 275 -243 274 -239 C 271 -235 278 -232 281 -233 C 284 -234 276 -237 277 -239 C 281 -262 279 -270 277 -275 C 273 -281 277 -285 277 -292 C 283 -287 285 -277 283 -269 C 283 -268 278 -263 281 -265 C 284 -267 281 -259 282 -260 C 284 -262 285 -268 285 -268 C 289 -281 283 -295 271 -300 C 271 -309 277 -313 273 -314 C 270 -314 268 -322 263 -317 Z"/>
<path style="fill: rgb(17, 17, 17);" d="M 264 -275 C 263 -274 268 -268 271 -268 C 274 -268 279 -274 277 -275 C 271 -272 264 -275 264 -275 Z"/>
<path style="fill: rgb(17, 17, 17);" d="M 264 -299 C 264 -299 261 -291 264 -287 C 267 -283 271 -286 270 -288 C 270 -285 275 -284 277 -288 C 279 -292 275 -298 275 -298 C 275 -298 277 -295 277 -291 C 277 -291 270 -291 270 -289 C 270 -291 264 -291 264 -291 C 262 -291 264 -299 264 -299 Z"/>
<path style="fill: rgb(255, 255, 255);" d="M 387 23 C 389 22 390 26 387 26 L 384 31 L 384 36 C 393 38 393 49 394 55 L 395 69 L 392 75 L 392 71 L 390 71 L 393 68 L 391 55 L 388 45 C 386 49 386 54 387 56 C 390 62 390 71 389 79 L 388 92 L 394 97 L 391 98 L 385 95 L 386 92 L 384 78 L 381 65 L 380 65 L 377 78 L 374 92 L 375 95 L 369 99 L 367 98 L 372 93 L 372 79 C 371 70 372 61 375 56 C 376 54 376 49 374 45 L 370 55 L 368 67 L 370 71 L 368 70 L 368 74 L 366 68 L 367 55 C 369 49 369 38 379 36 L 379 31 L 376 26 C 373 26 374 22 376 23 C 377 11 387 13 387 23 Z"/>
<path style="fill: rgb(17, 17, 17);" d="M 374 58 L 380 65 L 381 65 L 388 58 L 387 56 L 387 49 L 390 45 L 384 36 L 381 44 L 379 36 L 373 45 L 375 48 L 375 56 L 374 58 Z"/>
<ellipse style="fill: none; stroke: rgb(17, 17, 17);" cx="379" cy="23" rx="2" ry="2"/>
<ellipse style="fill: none; stroke: rgb(17, 17, 17);" cx="384" cy="23" rx="2" ry="2"/>
<rect width="100" height="100" style="fill: rgb(113, 183, 255);" x="220"/>
<path style="fill: rgb(17, 17, 17);" d="M 261 24 C 261 3 284 11 278 19 C 278 27 274 36 271 36 C 266 34 261 30 261 24 Z"/>
<path style="fill: rgb(255, 255, 255);" d="M 275 16 C 276 16 278 23 272 29 L 272 33 C 275 34 278 35 279 37 C 282 42 280 49 281 53 L 281 68 L 279 74 L 279 69 L 277 71 L 279 67 L 278 53 L 277 41 C 276 42 273 52 275 55 C 280 63 276 72 275 80 L 274 93 C 277 96 281 98 277 98 C 275 98 271 97 272 93 C 272 86 270 83 272 79 C 271 75 270 70 270 63 L 269 63 C 269 66 269 72 267 79 C 269 84 267 86 267 93 C 267 95 265 98 263 98 C 258 98 263 95 265 93 L 264 80 C 262 71 260 62 264 55 C 267 52 264 42 263 41 L 261 53 L 260 66 L 262 71 L 260 69 L 260 74 L 258 67 L 258 53 C 259 50 258 41 261 37 C 263 34 265 34 268 33 L 268 29 L 265 25 C 263 25 261 19 265 19 C 268 11 271 20 275 16 Z"/>
<path style="fill: rgb(17, 17, 17);" d="M 275 35 C 275 35 277 41 277 44 C 277 48 272 50 270 47 C 268 50 263 48 263 44 C 263 40 265 35 265 35 L 264 41 C 264 44 268 41 270 43 C 272 41 276 44 276 41 L 275 35 Z"/>
<path style="fill: rgb(17, 17, 17);" d="M 275 56 C 275 56 276 57 276 58 C 274 58 272 64 270 64 L 269 64 C 268 62 265 59 263 58 C 263 57 264 56 264 56 C 264 58 275 58 275 56 Z"/>
<rect width="100" height="100" style="fill: rgb(113, 183, 255);" x="220" y="-110"/>
<path style="fill: rgb(255, 255, 255);" d="M 278 -89 C 277 -110 255 -102 261 -94 C 261 -86 264 -80 268 -77 C 273 -79 278 -82 278 -89 Z"/>
<path style="fill: rgb(17, 17, 17);" d="M 264 -96 C 263 -96 261 -86 267 -83 L 267 -79 C 264 -78 261 -77 260 -75 C 257 -70 259 -63 258 -59 L 258 -44 L 260 -38 L 260 -43 L 262 -41 L 260 -45 L 261 -59 L 262 -71 C 263 -70 266 -60 264 -57 C 259 -49 263 -40 264 -32 L 265 -19 C 262 -16 258 -14 262 -14 C 264 -14 268 -15 267 -19 C 267 -26 269 -29 267 -33 C 268 -37 269 -42 269 -49 L 270 -49 C 270 -46 270 -40 272 -33 C 270 -28 272 -26 272 -19 C 272 -17 274 -14 276 -14 C 281 -14 276 -17 274 -19 L 275 -32 C 277 -41 279 -50 275 -57 C 272 -60 275 -70 276 -71 L 278 -59 L 279 -46 L 277 -41 L 279 -43 L 279 -38 L 281 -45 L 281 -59 C 280 -62 281 -71 278 -75 C 276 -78 274 -78 271 -79 L 271 -83 L 274 -87 C 276 -87 278 -93 274 -93 C 271 -101 267 -94 264 -96 Z"/>
<path style="fill: rgb(255, 255, 255);" d="M 264 -78 C 264 -78 262 -72 262 -69 C 262 -65 267 -63 269 -66 C 271 -63 276 -65 276 -69 C 276 -73 274 -78 274 -78 L 275 -72 C 275 -69 271 -72 269 -70 C 267 -72 263 -69 263 -72 L 264 -78 Z"/>
<path style="fill: rgb(255, 255, 255);" d="M 264 -57 C 264 -57 263 -56 263 -55 C 265 -55 267 -49 269 -49 L 270 -49 C 271 -51 274 -54 276 -55 C 276 -56 275 -57 275 -57 C 275 -55 264 -55 264 -57 Z"/>
<path style="fill: rgb(17, 17, 17);" d="M 496 33 L 497 28 C 499 26 498 22 497 23 C 497 13 484 13 484 23 C 483 22 482 26 484 28 L 485 33 L 475 41 L 471 56 L 474 70 L 476 75 L 479 77 L 477 72 L 479 73 L 477 68 L 476 57 L 479 46 L 480 61 L 481 93 L 476 97 L 479 99 L 486 95 L 490 68 L 495 96 L 501 99 L 505 98 L 500 94 L 501 61 L 501 46 L 504 57 L 504 68 L 502 73 L 504 72 L 502 77 L 504 76 L 507 70 L 509 56 L 506 41 L 496 33 Z"/>
<path style="fill: rgb(255, 255, 255);" d="M 484 28 L 485 34 L 491 38 L 496 33 L 497 27 L 495 33 L 492 31 L 489 31 L 486 33 L 484 28 Z"/>
<path style="fill: rgb(255, 255, 255);" d="M 484 34 C 484 34 482 31 482 31 L 481 36 L 475 41 L 472 48 L 478 52 L 479 48 L 479 62 L 502 65 L 501 48 L 502 52 L 509 49 L 506 41 L 499 35 C 499 35 499 32 499 32 L 496 35 L 490 45 L 484 34 Z"/>
<rect width="100" height="100" style="fill: rgb(113, 183, 255);" x="550" y="110"/>
<path style="fill: rgb(255, 0, 0);" d="M 565 182 C 581 184 572 192 564 191 C 558 191 559 181 565 182 Z"/>
<path style="fill: rgb(17, 17, 17);" d="M 575 69 L 573 69 C 574 68 568 63 568 63 C 553 66 555 77 570 75 C 571 75 572 76 573 76 L 575 84 L 584 92 L 598 94 L 602 99 L 603 95 L 601 93 L 602 90 L 598 91 L 587 89 L 582 82 L 599 86 L 631 91 L 635 97 L 637 94 L 633 88 L 610 79 L 641 82 L 646 75 L 645 73 L 639 78 L 605 70 L 590 68 L 601 67 L 610 68 L 614 71 L 613 69 L 617 68 L 618 66 L 612 65 L 601 62 L 585 64 L 575 69 Z"/>
<path style="fill: rgb(255, 255, 255);" d="M 562 65 C 556 65 553 77 563 75 C 561 74 560 70 562 65 Z"/>
<path style="fill: rgb(17, 17, 17);" d="M 562 65 C 560 52 556 69 562 74 C 561 70 561 70 562 65 Z"/>
<path style="fill: rgb(255, 255, 255);" d="M 573 73 L 570 77 L 573 78 C 573 78 575 84 575 84 L 579 89 L 586 86 L 583 83 L 596 89 L 602 84 L 602 74 L 608 70 L 593 68 L 596 62 L 585 64 L 576 68 L 584 72 C 584 72 573 73 573 73 Z"/>
<g id="Watch" transform="matrix(1, 0, 0, 1, 220, 0)">
<path style="fill: rgb(17, 17, 17);" d="M 61 67 L 58 67 L 58 65 L 61 65 L 61 64 L 62 63 L 62 69 L 61 68 L 61 67 Z"/>
<path style="fill: rgb(255, 255, 255);" d="M 62 63 L 62 69 C 63 68 63 64 62 63 Z"/>
</g>
<rect width="100" height="100" style="fill: rgb(113, 183, 255);" y="440" x="220"/>
<g id="Googles" transform="matrix(1, 0, 0, 1, 110, 330)">
<path style="stroke-linejoin: round; fill: rgb(17, 17, 17);" d="M 168 158 C 168 156 167 160 167 160 C 169 152 151 149 153 160 C 153 160 152 157 152 158 C 152 148 170 152 168 158 Z"/>
<path style="stroke: rgb(17, 17, 17); stroke-linejoin: round; fill: rgb(255, 255, 255);" d="M 160 156 L 152 158 L 153 162 L 158 163 L 160 164 L 162 163 L 167 162 L 168 158 L 160 156 Z"/>
<path style="stroke-linejoin: round; fill: rgb(17, 17, 17);" d="M 160 156 L 158 163 L 160 164 L 162 163 L 160 156 Z"/>
<path style="stroke-linejoin: round; fill: rgb(17, 17, 17);" d="M 151 145 C 151 158 150 167 158 167 C 163 170 163 163 158 166 C 151 166 152 157 152 145 L 151 145 Z"/>
</g>
<path style="stroke: rgb(255, 255, 255); stroke-linecap: round; stroke-linejoin: round; fill: rgb(255, 255, 255);" d="M 485 -19 L 485 -16 L 489 -16 L 490 -19 L 491 -19 L 492 -16 L 496 -16 L 496 -19 L 485 -19 Z"/>
<rect width="100" height="100" style="fill: rgb(113, 183, 255);" y="110" x="330"/>
<rect width="100" height="100" style="fill: rgb(113, 183, 255);" y="110" x="110"/>
<path style="fill: rgb(255, 255, 255);" d="M 152 151 L 152 170 C 152 174 168 174 168 170 L 168 151 C 168 155 152 155 152 151 Z"/>
<path style="fill: rgb(17, 17, 17);" d="M 152 151 C 152 155 168 155 168 151 C 168 147 152 147 152 151 Z"/>
<path style="fill: rgb(17, 17, 17);" d="M 140 139 C 138 142 149 153 152 151 C 154 148 143 137 140 139 Z"/>
<path style="fill: rgb(17, 17, 17);" d="M 154 155 L 154 169 C 154 171 166 171 166 169 L 166 155 C 166 157 154 157 154 155 Z"/>
<rect width="100" height="100" style="fill: rgb(113, 183, 255);" y="220" x="110"/>
<path style="fill: rgb(17, 17, 17);" d="M 374 168 C 373 168 373 169 373 169 C 373 170 374 170 374 170 L 386 170 C 385 170 385 168 386 168 L 374 168 Z"/>
<path style="fill: rgb(255, 255, 255);" d="M 374 153 C 373 153 373 154 373 154 C 373 154 373 168 373 169 C 373 169 373 168 374 168 L 374 153 Z"/>
<path style="fill: rgb(255, 255, 255);" d="M 374 153 L 374 168 L 386 168 L 386 153 L 374 153 Z"/>
<path style="stroke: rgb(0, 0, 0); fill: none;" d="M 377 163 L 383 163 L 380 157 L 377 163 Z"/>
<path style="fill: rgb(255, 255, 255);" d="M 156 262 L 155 284 L 159 291 L 165 282 L 164 260 L 156 262 Z"/>
<path style="stroke: rgb(17, 17, 17); fill: none;" d="M 151 263 L 170 258"/>
<path style="fill: rgb(17, 17, 17);" d="M 158 261 L 158 251 L 162 249 L 162 260 L 158 261 Z"/>
<rect width="100" height="100" style="fill: rgb(113, 183, 255);" y="330" x="110"/>
<g id="Screwdriver" transform="matrix(1, 0, 0, 1, 110, 0)">
<path style="fill: rgb(17, 17, 17);" d="M 48 385 L 48 394 L 50 396 L 51 396 L 53 394 L 53 385 L 51 382 L 50 382 L 48 385 Z"/>
<path style="fill: rgb(255, 255, 255);" d="M 49 368 L 50 369 L 50 382 L 51 382 L 51 369 L 52 368 L 51 364 L 50 364 L 49 368 Z"/>
</g>
<rect width="100" height="100" style="fill: rgb(113, 183, 255);" y="440" x="110"/>
<g id="Knife" transform="matrix(1, 0, 0, 1, 110, 0)">
<path style="fill: rgb(17, 17, 17);" d="M 51 486 L 49 486 L 49 476 L 51 476 L 51 486 Z"/>
<path style="fill: rgb(255, 255, 255);" d="M 51 486 L 49 486 L 49 505 L 51 500 L 51 486 Z"/>
</g>
<rect width="100" height="100" style="fill: rgb(113, 183, 255);" y="220" x="220"/>
<path style="fill: rgb(255, 255, 255);" d="M 251 284 L 247 256 C 254 249 282 273 294 267 L 290 282 C 271 294 265 275 251 284 Z"/>
<rect width="100" height="100" style="fill: rgb(113, 183, 255);" y="330" x="220"/>
<path style="fill: rgb(255, 255, 255);" d="M 264 378 L 289 379 L 288 385 L 286 381 L 284 385 L 282 382 L 279 385 L 277 381 L 275 382 L 264 382 C 261 389 252 387 252 380 C 252 373 261 371 264 378 Z"/>
<ellipse style="fill: rgb(17, 17, 17);" cx="255" cy="380" rx="2" ry="2"/>
<rect width="100" height="100" style="fill: rgb(113, 183, 255);" y="110" x="220"/>
<path style="stroke-linejoin: round; fill: rgb(17, 17, 17);" d="M 295 161 C 295 155 294 167 294 167 C 300 143 243 135 248 166 C 248 166 247 161 247 162 C 247 132 301 143 295 161 Z"/>
<path style="stroke: rgb(17, 17, 17); stroke-linejoin: round; fill: rgb(255, 255, 255); stroke-width: 4px;" d="M 271 155 L 247 161 L 250 173 L 265 176 L 271 179 L 277 176 L 292 173 L 295 161 L 271 155 Z"/>
<path style="stroke-linejoin: round; fill: rgb(17, 17, 17);" d="M 271 155 L 265 176 L 271 179 L 277 176 L 271 155 Z"/>
<path style="stroke-linejoin: round; fill: rgb(17, 17, 17);" d="M 246 123 C 246 161 236 194 274 191 C 276 190 274 186 277 183 C 276 184 270 186 266 183 C 268 186 269 188 267 188 C 241 188 249 158 249 123 L 246 123 Z"/>
<path style="fill: rgb(17, 17, 17);" d="M 564 167 L 562 167 L 562 161 L 564 161 L 564 167 Z"/>
<path style="fill: rgb(255, 255, 255);" d="M 564 167 L 562 167 L 562 178 L 563 176 L 564 167 Z"/>
<path style="fill: rgb(255, 2, 0);" d="M 562 178 C 562 181 565 185 566 185 C 563 186 561 180 562 178 Z"/>
<rect width="100" height="100" style="fill: rgb(113, 183, 255);" x="660"/>
<path style="fill: rgb(255, 255, 255);" d="M 671 63 L 690 48 L 699 32 L 707 46 C 707 46 736 49 736 49 L 746 30 C 746 30 750 62 750 62 L 738 55 L 727 62 L 727 67 C 727 67 723 65 723 65 L 710 68 L 718 79 L 699 71 L 683 72 L 691 68 L 677 70 L 671 63 Z"/>
<rect width="100" height="100" style="fill: rgb(113, 183, 255);" x="550" y="220"/>
<path style="fill: rgb(17, 17, 17);" d="M 602 250 L 598 250 C 602 249 600 242 600 242 C 591 228 581 241 592 252 L 587 257 L 582 269 L 583 283 L 580 290 L 583 288 L 585 285 L 588 286 L 586 282 L 586 270 L 591 264 L 592 279 L 587 313 L 582 318 L 585 319 L 591 316 L 600 287 L 607 315 L 614 319 L 616 317 L 610 312 L 608 280 L 604 257 L 611 247 L 612 230 L 614 228 L 614 225 L 611 224 L 611 220 L 610 221 L 610 226 L 608 225 L 610 229 L 606 244 L 602 250 Z"/>
<path style="fill: rgb(255, 255, 255);" d="M 596 238 C 594 232 581 234 587 243 C 587 241 591 237 596 238 Z"/>
<path style="fill: rgb(17, 17, 17);" d="M 597 238 C 609 233 592 234 588 241 C 592 239 592 238 597 238 Z"/>
<path style="fill: rgb(255, 255, 255);" d="M 594 252 L 589 250 L 589 253 L 586 256 L 583 264 L 589 267 L 590 266 L 591 279 L 610 282 L 606 257 L 608 252 L 603 248 L 599 250 L 598 261 L 594 252 Z"/>
<rect width="100" height="100" style="fill: rgb(113, 183, 255);" y="220" x="330"/>
<path style="fill: rgb(255, 255, 255);" d="M 357 260 L 357 288 C 357 288 403 284 404 284 C 405 284 404 255 404 255 L 357 260 Z"/>
<path style="fill: rgb(17, 17, 17);" d="M 377 262 L 383 261 L 383 270 L 391 269 L 391 273 L 383 274 L 384 281 L 379 282 L 378 274 L 370 275 C 370 275 370 271 370 271 C 370 271 378 270 378 270 L 377 262 Z"/>
<rect width="100" height="100" style="fill: rgb(113, 183, 255);" y="110"/>
<path style="fill: rgba(255, 255, 255, 0.21);" d="M 46 145 L 46 158 L 38 158 L 51 175 L 63 158 C 63 158 55 158 55 158 L 55 145 C 55 145 46 145 46 145 Z"/>
<path style="fill: rgb(217, 176, 105);" d="M -11 7 C -49 48 -77 69 -136 92 L -177 94 L -115 12 L -11 7 Z"/>
<path style="fill: rgb(183, 148, 88);" d="M -151 60 L -90 71 C -90 71 -118 85 -136 92 L -177 94 L -151 60 Z"/>
<path style="fill: rgb(17, 17, 17);" d="M -124 30 L -122 29 L -122 27 L -119 24 L -117 19 L -115 20 L -111 16 L -103 19 L -105 26 L -107 28 L -107 30 L -112 32 L -116 35 L -117 35 L -118 36 L -116 46 L -124 60 L -138 70 L -144 73 L -147 73 L -142 70 L -144 69 L -139 67 L -128 58 L -123 48 L -150 58 L -128 29 L -124 30 Z"/>
</svg>