<?xml version="1.0" encoding="utf-8"?>
<svg viewBox="0 0 100 100" xmlns="http://www.w3.org/2000/svg">
<rect width="100" height="100" style="fill: rgb(21, 16, 108);" y="-110"/>
<path style="fill: rgb(255, 255, 255);" d="M 37 -87 C 25 -99 59 -107 56 -85 C 53 -63 82 -56 75 -42 C 67 -26 37 -17 24 -29 C 10 -43 52 -73 37 -87 Z"/>
<g transform="matrix(1, 0, 0, 1, 80, -110)">
<path style="fill: rgb(255, 255, 255);" d="M 215 24 L 223 24 L 232 28 L 236 46 L 233 64 L 230 63 L 231 48 L 228 35 L 227 55 L 227 90 L 233 96 L 229 97 L 223 92 L 220 61 L 218 92 L 211 97 L 207 96 L 214 90 L 212 55 L 211 35 L 209 47 L 209 61 L 206 63 L 204 46 L 206 29 L 215 24 Z"/>
<path style="fill: rgb(17, 17, 17);" d="M 215 24 L 215 22 L 214 21 L 214 17 L 212 12 L 214 11 L 214 6 L 220 4 L 225 8 L 225 11 L 227 12 L 225 17 L 224 22 L 223 23 L 223 24 L 219 34 L 215 24 Z"/>
<path style="fill: rgb(17, 17, 17);" d="M 206 63 L 209 61 L 212 64 L 210 65 L 211 70 L 208 70 L 206 63 Z"/>
<path style="fill: rgb(17, 17, 17);" d="M 230 63 L 233 64 L 230 72 L 228 70 L 230 67 L 227 66 L 230 63 Z"/>
</g>
<path style="fill: rgb(17, 17, 17);" d="M 495 -86 L 495 -88 L 494 -89 L 494 -93 L 492 -98 L 494 -99 L 494 -104 L 500 -106 L 505 -102 L 505 -99 L 507 -98 L 505 -93 L 504 -88 L 503 -87 L 503 -86 L 512 -82 L 516 -64 L 513 -46 L 510 -38 L 508 -40 L 510 -43 L 507 -44 L 510 -47 L 511 -62 L 508 -75 L 507 -55 L 507 -20 L 513 -14 L 509 -13 L 503 -18 L 500 -49 L 498 -18 L 491 -13 L 487 -14 L 494 -20 L 492 -55 L 491 -75 L 489 -63 L 489 -49 L 492 -46 L 490 -45 L 491 -40 L 488 -40 L 486 -47 L 484 -64 L 486 -81 L 495 -86 Z"/>
<g transform="matrix(1, 0, 0, 1, 70, -110)">
<path style="fill: rgb(255, 255, 255);" d="M 275 24 L 283 24 L 292 28 L 296 46 L 293 64 L 290 63 L 291 48 L 288 35 L 287 55 L 272 55 L 271 35 L 269 47 L 269 61 L 266 63 L 264 46 L 266 29 L 275 24 Z"/>
<path style="fill: rgb(17, 17, 17);" d="M 275 24 L 275 22 L 274 21 L 274 17 L 272 12 L 274 11 L 274 6 L 280 4 L 285 8 L 285 11 L 287 12 L 285 17 L 284 22 L 283 23 L 283 24 L 279 34 L 275 24 Z"/>
<path style="fill: rgb(17, 17, 17);" d="M 266 63 L 269 61 L 272 64 L 270 65 L 271 70 L 268 70 L 266 63 Z"/>
<path style="fill: rgb(17, 17, 17);" d="M 290 63 L 293 64 L 290 72 L 288 70 L 290 67 L 287 66 L 290 63 Z"/>
<path style="fill: rgb(17, 17, 17);" d="M 272 55 L 287 55 L 287 90 L 293 96 L 289 97 L 283 92 L 280 61 L 278 92 L 271 97 L 267 96 L 274 90 L 272 55 Z"/>
</g>
<path style="fill: rgb(17, 17, 17);" d="M 395 -86 L 395 -88 L 394 -89 L 394 -93 L 392 -98 L 394 -99 L 394 -104 L 400 -106 L 405 -102 L 405 -99 L 407 -98 L 405 -93 L 404 -88 L 403 -87 L 403 -86 L 412 -82 L 416 -64 L 413 -46 L 410 -38 L 408 -40 L 410 -43 L 407 -44 L 410 -47 L 411 -62 L 408 -75 L 408 -50 L 407 -20 L 413 -14 L 409 -13 L 403 -18 L 400 -49 L 398 -18 L 391 -13 L 387 -14 L 394 -20 L 392 -50 L 391 -75 L 389 -63 L 389 -49 L 392 -46 L 390 -45 L 391 -40 L 388 -40 L 386 -47 L 384 -64 L 386 -81 L 395 -86 Z"/>
<path style="fill: rgb(255, 255, 255);" d="M 395 -86 C 395 -85 403 -85 403 -86 L 399 -70 L 395 -86 Z"/>
<path style="fill: rgb(255, 255, 255);" d="M 445 -86 L 453 -86 L 462 -82 L 466 -64 L 463 -46 L 460 -47 L 461 -62 L 458 -75 L 457 -55 L 457 -20 L 463 -14 L 459 -13 L 453 -18 L 450 -49 L 448 -18 L 441 -13 L 437 -14 L 444 -20 L 442 -55 L 441 -75 L 439 -63 L 439 -49 L 436 -47 L 434 -64 L 436 -81 L 445 -86 Z"/>
<path style="fill: rgb(17, 17, 17);" d="M 445 -86 L 445 -88 L 444 -89 L 444 -93 L 442 -98 L 444 -99 L 444 -104 L 450 -106 L 455 -102 L 455 -99 L 457 -98 L 455 -93 L 454 -88 L 453 -87 L 453 -86 L 449 -67 L 445 -86 Z"/>
<path style="fill: rgb(17, 17, 17);" d="M 436 -47 L 439 -49 L 442 -46 L 440 -45 L 441 -40 L 438 -40 L 436 -47 Z"/>
<path style="fill: rgb(17, 17, 17);" d="M 460 -47 L 463 -46 L 460 -38 L 458 -40 L 460 -43 L 457 -44 L 460 -47 Z"/>
<path style="fill: rgb(255, 255, 255);" d="M 446 -86 L 447 -83 L 452 -86 L 451 -83"/>
<path style="" d="M 395 -85 L 397 -82 L 403 -85 L 401 -82"/>
<path style="fill: rgb(255, 255, 255);" d="M 495 -86 L 503 -86 L 512 -82 L 516 -64 L 511 -62 L 508 -75 L 507 -55 L 492 -55 L 491 -75 L 489 -63 L 484 -64 L 486 -81 L 495 -86 Z"/>
<path style="fill: rgb(17, 17, 17);" d="M 495 -86 L 495 -88 L 494 -89 L 494 -93 L 492 -98 L 494 -99 L 494 -104 L 500 -106 L 505 -102 L 505 -99 L 507 -98 L 505 -93 L 504 -88 L 503 -87 L 503 -86 L 499 -76 L 495 -86 Z"/>
<path style="fill: rgb(17, 17, 17);" d="M 486 -47 L 489 -49 L 492 -46 L 490 -45 L 491 -40 L 488 -40 L 486 -47 Z"/>
<path style="fill: rgb(17, 17, 17);" d="M 510 -47 L 513 -46 L 510 -38 L 508 -40 L 510 -43 L 507 -44 L 510 -47 Z"/>
<path style="fill: rgb(255, 255, 255);" d="M 494 -20 L 498 -18 L 491 -13 L 487 -14 L 494 -20 Z"/>
<path style="fill: rgb(255, 255, 255);" d="M 503 -18 L 507 -20 L 513 -14 L 509 -13 L 503 -18 Z"/>
<path style="fill: rgb(17, 17, 17);" d="M 234 -64 L 239 -63 L 239 -49 L 242 -46 L 240 -45 L 241 -40 L 238 -40 L 236 -47 L 234 -64 Z"/>
<path style="fill: rgb(255, 255, 255);" d="M 245 -86 L 253 -86 L 262 -82 L 266 -64 L 261 -62 L 258 -75 L 257 -55 L 242 -55 L 241 -75 L 239 -63 L 234 -64 L 236 -81 L 245 -86 Z"/>
<path style="fill: rgb(17, 17, 17);" d="M 245 -86 L 245 -88 L 244 -89 L 244 -93 L 242 -98 L 244 -99 L 244 -104 L 250 -106 L 255 -102 L 255 -99 L 257 -98 L 255 -93 L 254 -88 L 253 -87 L 253 -86 L 249 -76 L 245 -86 Z"/>
<path style="fill: rgb(255, 255, 255);" d="M 244 -20 L 248 -18 L 241 -13 L 237 -14 L 244 -20 Z"/>
<path style="fill: rgb(255, 255, 255);" d="M 253 -18 L 257 -20 L 263 -14 L 259 -13 L 253 -18 Z"/>
<path style="fill: none; stroke: rgb(255, 255, 255); stroke-linecap: round; stroke-linejoin: round;" d="M 245 -98 L 245 -95 L 249 -95 L 250 -98 L 251 -95 L 255 -95 L 255 -98 L 245 -98 Z"/>
<path style="fill: rgb(17, 17, 17);" d="M 261 -62 L 266 -64 L 263 -46 L 260 -38 L 258 -40 L 260 -43 L 257 -44 L 260 -47 L 261 -62 Z"/>
<path style="fill: rgb(17, 17, 17);" d="M 242 -55 L 257 -55 L 257 -20 L 253 -18 L 250 -49 L 248 -18 L 244 -20 L 242 -55 Z"/>
<path style="fill: rgb(17, 17, 17);" d="M 191 -86 C 192 -89 189 -88 190 -93 C 187 -93 187 -99 190 -99 C 190 -110 201 -110 201 -99 C 204 -100 204 -94 201 -93 C 201 -88 199 -89 199 -86 C 213 -82 211 -59 211 -59 C 211 -59 210 -40 205 -39 C 206 -41 206 -45 204 -44 C 204 -44 204 -48 206 -49 C 207 -52 207 -67 204 -74 C 203 -70 203 -55 203 -55 L 203 -20 C 203 -20 207 -17 208 -15 C 209 -13 205 -12 204 -14 C 202 -17 200 -15 199 -18 L 196 -49 L 194 -18 C 193 -15 192 -17 188 -14 C 186 -13 183 -13 184 -15 C 185 -17 187 -18 190 -20 L 188 -55 C 188 -59 187 -71 187 -74 C 184 -69 183 -55 185 -49 C 187 -48 188 -45 188 -44 C 186 -46 185 -43 186 -39 C 183 -37 180 -59 180 -59 C 180 -59 178 -81 191 -86 Z"/>
<path style="fill: rgb(255, 255, 255);" d="M 188 -55 L 203 -55 L 204 -38 L 197 -37 L 196 -45 L 196 -37 L 188 -38 L 188 -55 Z"/>
<path style="fill: rgb(17, 17, 17);" d="M 141 -86 L 141 -88 L 140 -89 L 140 -93 L 138 -98 L 140 -99 L 140 -104 L 148 -108 L 151 -102 L 151 -99 L 153 -98 L 151 -93 L 150 -88 L 149 -87 L 149 -86 L 158 -80 L 162 -64 L 159 -47 L 157 -41 L 155 -39 L 156 -45 L 154 -44 L 156 -49 L 157 -62 L 154 -74 L 153 -55 L 153 -20 L 159 -14 L 155 -13 L 149 -18 L 146 -49 L 144 -18 L 137 -13 L 133 -14 L 140 -20 L 138 -55 L 137 -74 L 135 -63 L 135 -49 L 138 -44 L 136 -45 L 136 -39 L 134 -40 L 132 -47 L 130 -64 L 132 -80 L 141 -86 Z"/>
<path style="fill: rgb(255, 255, 255);" d="M 138 -55 L 153 -55 L 154 -38 L 147 -37 L 146 -45 L 146 -37 L 138 -38 L 138 -55 Z"/>
<rect width="100" height="100" style="fill: rgb(240, 240, 240);"/>
<path style="fill: rgb(17, 17, 17);" d="M 45 24 L 45 22 L 44 21 L 44 17 L 42 12 L 44 11 L 44 6 L 52 2 L 55 8 L 55 11 L 57 12 L 55 17 L 54 22 L 53 23 L 53 24 L 62 30 L 66 46 L 63 63 L 61 69 L 59 71 L 60 65 L 58 66 L 60 61 L 61 48 L 58 36 L 57 55 L 57 90 L 62 96 L 59 97 L 53 92 L 50 61 L 48 92 L 41 97 L 38 96 L 44 90 L 42 55 L 41 36 L 39 47 L 39 61 L 42 66 L 40 65 L 40 71 L 38 70 L 36 63 L 34 46 L 36 30 L 45 24 Z"/>
<path style="fill: rgb(255, 255, 255);" d="M 42 55 L 57 55 L 58 72 L 51 73 L 50 65 L 50 73 L 42 72 L 42 55 Z"/>
<path style="fill: rgb(255, 255, 255);" d="M 544 -87 C 544 -87 540 -96 540 -96 L 542 -104 L 547 -107 L 553 -105 C 553 -105 556 -100 556 -100 C 556 -100 555 -92 555 -92 L 552 -86 L 544 -87 Z"/>
<path style="fill: rgb(17, 17, 17);" d="M 546 -85 L 546 -88 L 544 -92 L 543 -96 L 544 -98 L 545 -102 L 548 -104 L 551 -102 L 552 -98 L 553 -96 L 552 -92 L 550 -88 L 550 -85 L 557 -79 L 562 -64 L 560 -49 L 559 -43 L 557 -41 L 558 -47 L 556 -46 L 558 -51 L 559 -64 L 555 -74 L 554 -62 L 556 -56 L 555 -20 L 560 -15 L 557 -14 L 552 -19 L 552 -25 L 551 -31 L 552 -34 L 549 -52 L 546 -34 L 547 -31 L 546 -25 L 546 -19 L 540 -14 L 537 -15 L 543 -20 L 542 -56 L 544 -62 L 541 -73 L 539 -62 L 539 -50 L 542 -46 L 540 -47 L 540 -41 L 539 -42 L 537 -49 L 536 -63 L 539 -79 L 546 -85 Z"/>
<path style="fill: rgb(255, 255, 255);" d="M 541 -72 L 545 -70 L 548 -73 L 551 -70 L 555 -72 L 556 -81 C 556 -81 554 -76 554 -76 L 548 -74 L 542 -76 L 541 -82 L 541 -72 Z"/>
<path style="fill: rgb(255, 255, 255);" d="M 543 -60 L 542 -57 L 548 -50 L 550 -50 L 556 -57 L 555 -60 L 543 -60 Z"/>
<g transform="matrix(1, 0, 0, 1, 514.114929, 309.785828)"/>
</svg>