<?xml version="1.0" encoding="utf-8"?>
<svg viewBox="0 0 100 100" xmlns="http://www.w3.org/2000/svg">
<rect width="540" height="100" style="fill: rgb(113, 183, 255);" y="-220" x="110"/>
<g transform="matrix(1, 0, 0, 1, 80, -220)">
<path style="fill: rgb(255, 255, 255);" d="M 215 24 L 223 24 L 232 28 L 236 46 L 233 64 L 230 63 L 231 48 L 228 35 L 227 55 L 227 90 L 233 96 L 229 97 L 223 92 L 220 61 L 218 92 L 211 97 L 207 96 L 214 90 L 212 55 L 211 35 L 209 47 L 209 61 L 206 63 L 204 46 L 206 29 L 215 24 Z"/>
<path style="fill: rgb(17, 17, 17);" d="M 215 24 L 215 22 L 214 21 L 214 17 L 212 12 L 214 11 L 214 6 L 220 4 L 225 8 L 225 11 L 227 12 L 225 17 L 224 22 L 223 23 L 223 24 L 219 34 L 215 24 Z"/>
<path style="fill: rgb(17, 17, 17);" d="M 206 63 L 209 61 L 212 64 L 210 65 L 211 70 L 208 70 L 206 63 Z"/>
<path style="fill: rgb(17, 17, 17);" d="M 230 63 L 233 64 L 230 72 L 228 70 L 230 67 L 227 66 L 230 63 Z"/>
</g>
<path style="fill: rgb(17, 17, 17);" d="M 495 -196 L 495 -198 L 494 -199 L 494 -203 L 492 -208 L 494 -209 L 494 -214 L 500 -216 L 505 -212 L 505 -209 L 507 -208 L 505 -203 L 504 -198 L 503 -197 L 503 -196 L 512 -192 L 516 -174 L 513 -156 L 510 -148 L 508 -150 L 510 -153 L 507 -154 L 510 -157 L 511 -172 L 508 -185 L 507 -165 L 507 -130 L 513 -124 L 509 -123 L 503 -128 L 500 -159 L 498 -128 L 491 -123 L 487 -124 L 494 -130 L 492 -165 L 491 -185 L 489 -173 L 489 -159 L 492 -156 L 490 -155 L 491 -150 L 488 -150 L 486 -157 L 484 -174 L 486 -191 L 495 -196 Z"/>
<g transform="matrix(1, 0, 0, 1, 70, -220)">
<path style="fill: rgb(255, 255, 255);" d="M 275 24 L 283 24 L 292 28 L 296 46 L 293 64 L 290 63 L 291 48 L 288 35 L 287 55 L 272 55 L 271 35 L 269 47 L 269 61 L 266 63 L 264 46 L 266 29 L 275 24 Z"/>
<path style="fill: rgb(17, 17, 17);" d="M 275 24 L 275 22 L 274 21 L 274 17 L 272 12 L 274 11 L 274 6 L 280 4 L 285 8 L 285 11 L 287 12 L 285 17 L 284 22 L 283 23 L 283 24 L 279 34 L 275 24 Z"/>
<path style="fill: rgb(17, 17, 17);" d="M 266 63 L 269 61 L 272 64 L 270 65 L 271 70 L 268 70 L 266 63 Z"/>
<path style="fill: rgb(17, 17, 17);" d="M 290 63 L 293 64 L 290 72 L 288 70 L 290 67 L 287 66 L 290 63 Z"/>
<path style="fill: rgb(17, 17, 17);" d="M 272 55 L 287 55 L 287 90 L 293 96 L 289 97 L 283 92 L 280 61 L 278 92 L 271 97 L 267 96 L 274 90 L 272 55 Z"/>
</g>
<path style="fill: rgb(17, 17, 17);" d="M 395 -196 L 395 -198 L 394 -199 L 394 -203 L 392 -208 L 394 -209 L 394 -214 L 400 -216 L 405 -212 L 405 -209 L 407 -208 L 405 -203 L 404 -198 L 403 -197 L 403 -196 L 412 -192 L 416 -174 L 413 -156 L 410 -148 L 408 -150 L 410 -153 L 407 -154 L 410 -157 L 411 -172 L 408 -185 L 408 -160 L 407 -130 L 413 -124 L 409 -123 L 403 -128 L 400 -159 L 398 -128 L 391 -123 L 387 -124 L 394 -130 L 392 -160 L 391 -185 L 389 -173 L 389 -159 L 392 -156 L 390 -155 L 391 -150 L 388 -150 L 386 -157 L 384 -174 L 386 -191 L 395 -196 Z"/>
<path style="fill: rgb(255, 255, 255);" d="M 395 -196 C 395 -195 403 -195 403 -196 L 399 -180 L 395 -196 Z"/>
<path style="fill: rgb(255, 255, 255);" d="M 445 -196 L 453 -196 L 462 -192 L 466 -174 L 463 -156 L 460 -157 L 461 -172 L 458 -185 L 457 -165 L 457 -130 L 463 -124 L 459 -123 L 453 -128 L 450 -159 L 448 -128 L 441 -123 L 437 -124 L 444 -130 L 442 -165 L 441 -185 L 439 -173 L 439 -159 L 436 -157 L 434 -174 L 436 -191 L 445 -196 Z"/>
<path style="fill: rgb(17, 17, 17);" d="M 445 -196 L 445 -198 L 444 -199 L 444 -203 L 442 -208 L 444 -209 L 444 -214 L 450 -216 L 455 -212 L 455 -209 L 457 -208 L 455 -203 L 454 -198 L 453 -197 L 453 -196 L 449 -177 L 445 -196 Z"/>
<path style="fill: rgb(17, 17, 17);" d="M 436 -157 L 439 -159 L 442 -156 L 440 -155 L 441 -150 L 438 -150 L 436 -157 Z"/>
<path style="fill: rgb(17, 17, 17);" d="M 460 -157 L 463 -156 L 460 -148 L 458 -150 L 460 -153 L 457 -154 L 460 -157 Z"/>
<path style="fill: rgb(255, 255, 255);" d="M 446 -196 L 447 -193 L 452 -196 L 451 -193"/>
<path style="" d="M 395 -195 L 397 -192 L 403 -195 L 401 -192"/>
<path style="fill: rgb(255, 255, 255);" d="M 495 -196 L 503 -196 L 512 -192 L 516 -174 L 511 -172 L 508 -185 L 507 -165 L 492 -165 L 491 -185 L 489 -173 L 484 -174 L 486 -191 L 495 -196 Z"/>
<path style="fill: rgb(17, 17, 17);" d="M 495 -196 L 495 -198 L 494 -199 L 494 -203 L 492 -208 L 494 -209 L 494 -214 L 500 -216 L 505 -212 L 505 -209 L 507 -208 L 505 -203 L 504 -198 L 503 -197 L 503 -196 L 499 -186 L 495 -196 Z"/>
<path style="fill: rgb(17, 17, 17);" d="M 486 -157 L 489 -159 L 492 -156 L 490 -155 L 491 -150 L 488 -150 L 486 -157 Z"/>
<path style="fill: rgb(17, 17, 17);" d="M 510 -157 L 513 -156 L 510 -148 L 508 -150 L 510 -153 L 507 -154 L 510 -157 Z"/>
<path style="fill: rgb(255, 255, 255);" d="M 494 -130 L 498 -128 L 491 -123 L 487 -124 L 494 -130 Z"/>
<path style="fill: rgb(255, 255, 255);" d="M 503 -128 L 507 -130 L 513 -124 L 509 -123 L 503 -128 Z"/>
<path style="fill: rgb(17, 17, 17);" d="M 234 -174 L 239 -173 L 239 -159 L 242 -156 L 240 -155 L 241 -150 L 238 -150 L 236 -157 L 234 -174 Z"/>
<path style="fill: rgb(255, 255, 255);" d="M 245 -196 L 253 -196 L 262 -192 L 266 -174 L 261 -172 L 258 -185 L 257 -165 L 242 -165 L 241 -185 L 239 -173 L 234 -174 L 236 -191 L 245 -196 Z"/>
<path style="fill: rgb(17, 17, 17);" d="M 245 -196 L 245 -198 L 244 -199 L 244 -203 L 242 -208 L 244 -209 L 244 -214 L 250 -216 L 255 -212 L 255 -209 L 257 -208 L 255 -203 L 254 -198 L 253 -197 L 253 -196 L 249 -186 L 245 -196 Z"/>
<path style="fill: rgb(255, 255, 255);" d="M 244 -130 L 248 -128 L 241 -123 L 237 -124 L 244 -130 Z"/>
<path style="fill: rgb(255, 255, 255);" d="M 253 -128 L 257 -130 L 263 -124 L 259 -123 L 253 -128 Z"/>
<path style="fill: none; stroke: rgb(255, 255, 255); stroke-linecap: round; stroke-linejoin: round;" d="M 245 -208 L 245 -205 L 249 -205 L 250 -208 L 251 -205 L 255 -205 L 255 -208 L 245 -208 Z"/>
<path style="fill: rgb(17, 17, 17);" d="M 261 -172 L 266 -174 L 263 -156 L 260 -148 L 258 -150 L 260 -153 L 257 -154 L 260 -157 L 261 -172 Z"/>
<path style="fill: rgb(17, 17, 17);" d="M 242 -165 L 257 -165 L 257 -130 L 253 -128 L 250 -159 L 248 -128 L 244 -130 L 242 -165 Z"/>
<path style="fill: rgb(17, 17, 17);" d="M 191 -196 C 192 -199 189 -198 190 -203 C 187 -203 187 -209 190 -209 C 190 -220 201 -220 201 -209 C 204 -210 204 -204 201 -203 C 201 -198 199 -199 199 -196 C 213 -192 211 -169 211 -169 C 211 -169 209 -147 205 -149 C 206 -151 208 -156 204 -153 C 204 -153 204 -155 206 -157 C 207 -160 207 -177 204 -184 C 203 -180 203 -165 203 -165 L 203 -130 C 203 -130 207 -127 208 -125 C 209 -123 205 -122 204 -124 C 202 -127 200 -125 199 -128 L 196 -159 L 194 -128 C 193 -125 192 -127 188 -124 C 186 -123 183 -123 184 -125 C 185 -127 187 -128 190 -130 L 188 -165 C 188 -169 187 -181 187 -184 C 184 -179 183 -164 185 -158 C 187 -157 188 -155 188 -154 C 186 -156 185 -153 186 -149 C 183 -147 180 -169 180 -169 C 180 -169 178 -191 191 -196 Z"/>
<path style="fill: rgb(255, 255, 255);" d="M 188 -165 L 203 -165 L 204 -148 L 197 -147 L 196 -155 L 196 -147 L 188 -148 L 188 -165 Z"/>
<path style="fill: rgb(17, 17, 17);" d="M 141 -196 L 141 -198 L 140 -199 L 140 -203 L 138 -208 L 140 -209 L 140 -214 L 148 -218 L 151 -212 L 151 -209 L 153 -208 L 151 -203 L 150 -198 L 149 -197 L 149 -196 L 158 -190 L 162 -174 L 159 -157 L 157 -151 L 155 -149 L 156 -155 L 154 -154 L 156 -159 L 157 -172 L 154 -184 L 153 -165 L 153 -130 L 159 -124 L 155 -123 L 149 -128 L 146 -159 L 144 -128 L 137 -123 L 133 -124 L 140 -130 L 138 -165 L 137 -184 L 135 -173 L 135 -159 L 138 -154 L 136 -155 L 136 -149 L 134 -150 L 132 -157 L 130 -174 L 132 -190 L 141 -196 Z"/>
<path style="fill: rgb(255, 255, 255);" d="M 138 -165 L 153 -165 L 154 -148 L 147 -147 L 146 -155 L 146 -147 L 138 -148 L 138 -165 Z"/>
<rect width="100" height="100" style="fill: rgb(113, 183, 255);"/>
<path style="fill: rgb(17, 17, 17);" d="M 45 25 L 45 23 L 44 22 L 44 18 L 42 13 L 44 12 L 44 7 L 52 3 L 55 9 L 55 12 L 57 13 L 55 18 L 54 23 L 53 24 L 53 25 L 62 31 L 66 47 L 63 64 L 61 70 L 59 72 L 60 66 L 58 67 L 60 62 L 61 49 L 58 37 L 57 56 L 57 91 L 62 97 L 59 98 L 53 93 L 50 62 L 48 93 L 41 98 L 38 97 L 44 91 L 42 56 L 41 37 L 39 48 L 39 62 L 42 67 L 40 66 L 40 72 L 38 71 L 36 64 L 34 47 L 36 31 L 45 25 Z"/>
<path style="fill: rgb(255, 255, 255);" d="M 42 56 L 57 56 L 58 73 L 51 74 L 50 66 L 50 74 L 42 73 L 42 56 Z"/>
<g transform="matrix(1, 0, 0, 1, 514.114929, 309.785828)"/>
<rect width="100" height="100" style="fill: rgb(113, 183, 255);" x="220"/>
<path d="M 278 21 C 278 27 276 31 272 31 C 268 31 265 27 265 21 C 265 14 262 14 271 10 C 280 6 278 15 278 21 Z" style="fill: rgb(17, 17, 17);"/>
<rect width="100" height="100" style="fill: rgb(113, 183, 255);" x="330"/>
<rect width="100" height="100" style="fill: rgb(113, 183, 255);" x="440"/>
<rect width="100" height="100" style="fill: rgb(113, 183, 255);" y="-110"/>
<g>
<g transform="matrix(1, 0, 0, 1, 0.505981, -109.92009)">
<path style="fill: rgb(17, 17, 17);" d="M 45 24 C 46 21 43 22 44 17 C 41 17 41 11 44 11 C 44 0 55 0 55 11 C 58 10 58 16 55 17 C 55 22 53 21 53 24 C 67 28 65 51 65 51 C 65 51 63 73 59 71 C 60 69 62 64 58 67 C 58 67 58 65 60 63 C 61 60 61 43 58 36 C 57 40 57 55 57 55 L 57 90 C 57 90 61 93 62 95 C 63 97 59 98 58 96 C 56 93 54 95 53 92 L 50 61 L 48 92 C 47 95 46 93 42 96 C 40 97 37 97 38 95 C 39 93 41 92 44 90 L 42 55 C 42 51 41 39 41 36 C 38 41 37 56 39 62 C 41 63 42 65 42 66 C 40 64 39 67 40 71 C 37 73 34 51 34 51 C 34 51 32 29 45 24 Z"/>
<path style="fill: rgb(255, 255, 255);" d="M 42 55 L 57 55 L 58 72 L 51 73 L 50 65 L 50 73 L 42 72 L 42 55 Z"/>
</g>
</g>
<rect width="100" height="100" style="fill: rgb(113, 183, 255);" y="-110" x="-110"/>
<path style="fill: rgb(255, 255, 255);" d="M -64 -86 C -63 -89 -66 -88 -65 -93 C -68 -93 -68 -99 -65 -99 C -65 -110 -54 -110 -54 -99 C -51 -100 -51 -94 -54 -93 C -54 -88 -56 -89 -56 -86 C -42 -82 -44 -59 -44 -59 C -44 -59 -46 -37 -50 -39 C -49 -41 -47 -46 -51 -43 C -51 -43 -51 -45 -49 -47 C -48 -50 -48 -67 -51 -74 C -52 -70 -52 -55 -52 -55 L -52 -20 C -52 -20 -48 -17 -47 -15 C -46 -13 -50 -12 -51 -14 C -53 -17 -55 -15 -56 -18 L -59 -49 L -61 -18 C -62 -15 -63 -17 -67 -14 C -69 -13 -72 -13 -71 -15 C -70 -17 -68 -18 -65 -20 L -67 -55 C -67 -59 -68 -71 -68 -74 C -71 -69 -72 -54 -70 -48 C -68 -47 -67 -45 -67 -44 C -69 -46 -70 -43 -69 -39 C -72 -37 -75 -59 -75 -59 C -75 -59 -77 -81 -64 -86 Z"/>
<path style="fill: rgb(17, 17, 17);" d="M -67 -55 L -52 -55 L -51 -38 L -58 -37 L -59 -45 L -59 -37 L -67 -38 L -67 -55 Z"/>
<rect width="100" height="100" style="fill: rgb(113, 183, 255);" y="-220"/>
<path style="fill: rgb(17, 17, 17);" d="M 45 -195 C 47 -197 44 -197 44 -198 C 44 -199 44 -201 44 -202 C 44 -204 42 -205 42 -207 C 42 -208 44 -207 44 -208 C 45 -212 40 -219 52 -217 C 58 -216 54 -211 55 -208 C 55 -207 57 -208 57 -207 C 57 -205 56 -204 55 -202 C 55 -200 55 -199 54 -197 C 54 -197 52 -196 53 -195 C 56 -193 60 -192 62 -189 C 65 -184 66 -178 66 -173 C 66 -167 64 -162 63 -156 C 63 -154 62 -152 61 -150 C 61 -149 59 -147 59 -148 C 59 -150 60 -152 60 -154 C 60 -155 58 -152 58 -153 C 58 -155 60 -156 60 -158 C 61 -162 61 -167 61 -171 C 61 -175 60 -187 58 -183 C 55 -177 57 -170 57 -164 C 57 -152 56 -141 57 -129 C 57 -126 61 -126 62 -123 C 62 -122 60 -122 59 -122 C 57 -123 54 -124 53 -127 C 50 -137 60 -158 50 -158 C 40 -158 51 -137 48 -127 C 47 -124 44 -123 41 -122 C 40 -122 38 -122 38 -123 C 39 -126 44 -126 44 -129 C 45 -141 43 -152 42 -164 C 42 -170 43 -177 41 -183 C 40 -186 39 -176 39 -172 C 39 -167 38 -163 39 -158 C 39 -156 42 -155 42 -153 C 42 -152 40 -155 40 -154 C 39 -152 41 -150 40 -148 C 40 -147 38 -148 38 -149 C 37 -151 36 -154 36 -156 C 35 -162 34 -167 34 -173 C 34 -178 34 -184 36 -189 C 38 -192 42 -193 45 -195 Z"/>
<path style="fill: rgb(255, 255, 255);" d="M 42 -164 C 42 -162 57 -162 57 -164 C 58 -164 58 -147 58 -147 C 59 -145 51 -145 51 -146 L 50 -154 L 50 -146 C 49 -145 41 -146 42 -147 C 42 -147 41 -164 42 -164 Z"/>
<rect width="100" height="100" style="fill: rgb(113, 183, 255);" y="-330"/>
<path style="fill: rgb(17, 17, 17);" d="M 46 -305 C 46 -308 44 -308 44 -312 C 44 -314 40 -317 44 -318 C 45 -322 37 -330 52 -327 C 58 -326 54 -321 55 -318 C 58 -319 56 -314 55 -312 C 55 -308 52 -308 53 -305 C 56 -303 60 -302 62 -299 C 65 -294 66 -287 66 -282 C 66 -276 65 -272 64 -266 C 64 -263 61 -257 60 -258 C 59 -260 61 -261 61 -264 C 61 -265 59 -262 59 -263 C 59 -265 61 -266 62 -268 C 63 -272 61 -277 61 -281 C 61 -285 60 -297 58 -293 C 55 -287 56 -280 57 -274 C 59 -262 57 -251 57 -239 C 57 -236 61 -236 62 -233 C 62 -232 60 -232 59 -232 C 57 -233 54 -234 53 -237 C 51 -247 60 -268 50 -268 C 40 -268 51 -247 48 -237 C 47 -234 44 -233 41 -232 C 40 -232 38 -232 38 -233 C 39 -236 44 -236 44 -239 C 45 -251 43 -262 42 -274 C 42 -280 43 -287 41 -293 C 40 -296 39 -286 39 -282 C 39 -277 37 -273 38 -268 C 38 -266 41 -265 41 -263 C 41 -262 39 -265 39 -264 C 38 -262 41 -260 40 -258 C 39 -257 36 -264 36 -266 C 35 -272 34 -277 34 -283 C 34 -288 34 -294 36 -299 C 38 -302 43 -303 46 -305 Z"/>
<path style="fill: rgb(255, 255, 255);" d="M 42 -274 C 42 -272 57 -272 57 -274 C 59 -274 58 -257 58 -257 C 60 -254 51 -255 51 -256 L 50 -264 L 49 -256 C 48 -255 40 -255 42 -257 C 42 -257 41 -274 42 -274 Z"/>
<rect width="100" height="100" style="fill: rgb(113, 183, 255);" y="-330" x="-110"/>
<path style="fill: rgb(255, 255, 255);" d="M -64 -305 C -64 -308 -66 -308 -66 -312 C -66 -314 -70 -317 -66 -318 C -65 -322 -73 -330 -58 -327 C -52 -326 -56 -321 -55 -318 C -52 -319 -54 -314 -55 -312 C -55 -308 -58 -308 -57 -305 C -54 -303 -50 -302 -48 -299 C -45 -294 -44 -288 -44 -283 C -44 -277 -46 -272 -47 -266 C -46 -263 -50 -257 -51 -258 C -52 -260 -50 -262 -50 -264 C -50 -265 -52 -262 -52 -263 C -52 -265 -50 -266 -49 -268 C -48 -272 -49 -277 -49 -281 C -49 -285 -50 -297 -52 -293 C -55 -287 -54 -280 -53 -274 C -51 -262 -53 -251 -53 -239 C -53 -236 -49 -236 -48 -233 C -48 -232 -50 -232 -51 -232 C -53 -233 -56 -234 -57 -237 C -60 -247 -50 -268 -60 -268 C -70 -268 -59 -247 -62 -237 C -63 -234 -66 -233 -69 -232 C -70 -232 -72 -232 -72 -233 C -71 -236 -66 -236 -66 -239 C -65 -251 -67 -262 -68 -274 C -68 -280 -67 -287 -69 -293 C -70 -296 -71 -286 -71 -282 C -71 -277 -73 -273 -72 -268 C -72 -266 -69 -265 -69 -263 C -69 -262 -71 -265 -71 -264 C -72 -262 -69 -260 -70 -258 C -71 -257 -74 -264 -74 -266 C -75 -272 -76 -277 -76 -283 C -76 -288 -76 -294 -74 -299 C -72 -302 -67 -303 -64 -305 Z"/>
<path style="fill: rgb(17, 17, 17);" d="M -68 -274 C -68 -272 -53 -272 -53 -274 C -51 -274 -52 -257 -52 -257 C -50 -254 -59 -255 -59 -256 L -60 -264 L -60 -256 C -61 -255 -70 -255 -68 -257 C -68 -257 -69 -274 -68 -274 Z"/>
<rect width="100" height="100" style="fill: rgb(113, 183, 255);" y="-330" x="110"/>
<path style="fill: rgb(17, 17, 17);" d="M 156 -323 C 151 -325 141 -310 157 -297 C 168 -292 176 -329 156 -323 Z"/>
<path style="fill: rgb(255, 255, 255);" d="M 153 -317 C 148 -306 156 -308 156 -300 C 149 -295 144 -278 147 -268 C 147 -263 149 -260 150 -259 C 151 -258 149 -266 151 -265 C 153 -264 150 -268 149 -269 C 147 -277 150 -285 153 -292 C 153 -287 158 -282 154 -275 C 152 -271 151 -253 154 -238 C 154 -236 145 -236 149 -234 C 153 -232 158 -236 157 -239 C 156 -244 156 -269 161 -269 C 166 -269 165 -243 164 -239 C 161 -235 168 -232 171 -233 C 174 -234 166 -237 167 -239 C 171 -262 169 -270 167 -275 C 163 -281 167 -285 167 -292 C 173 -287 175 -277 173 -269 C 173 -268 168 -263 171 -265 C 174 -267 171 -259 172 -260 C 174 -262 175 -268 175 -268 C 179 -281 173 -295 161 -300 C 161 -309 167 -313 163 -314 C 160 -314 158 -322 153 -317 Z"/>
<path style="fill: rgb(17, 17, 17);" d="M 154 -275 C 153 -274 158 -268 161 -268 C 164 -268 169 -274 167 -275 C 161 -272 154 -275 154 -275 Z"/>
<path style="fill: rgb(17, 17, 17);" d="M 154 -299 C 154 -299 151 -291 154 -287 C 157 -283 161 -286 160 -288 C 160 -285 165 -284 167 -288 C 169 -292 165 -298 165 -298 C 165 -298 167 -295 167 -291 C 167 -291 160 -291 160 -289 C 160 -291 154 -291 154 -291 C 152 -291 154 -299 154 -299 Z"/>
<path style="fill: rgb(255, 255, 255);" d="M 277 21 C 279 20 280 24 277 24 L 274 29 L 274 34 C 283 36 283 47 284 53 L 285 67 L 282 73 L 282 69 L 280 69 L 283 66 L 281 53 L 278 43 C 276 47 276 52 277 54 C 280 60 280 69 279 77 L 278 90 L 284 95 L 281 96 L 275 93 L 276 90 L 274 76 L 271 63 L 270 63 L 267 76 L 264 90 L 265 93 L 259 97 L 257 96 L 262 91 L 262 77 C 261 68 262 59 265 54 C 266 52 266 47 264 43 L 260 53 L 258 65 L 260 69 L 258 68 L 258 72 L 256 66 L 257 53 C 259 47 259 36 269 34 L 269 29 L 266 24 C 263 24 264 20 266 21 C 267 9 277 11 277 21 Z"/>
<path style="fill: rgb(17, 17, 17);" d="M 264 56 L 270 63 L 271 63 L 278 56 L 277 54 L 277 47 L 280 43 L 274 34 L 271 42 L 269 34 L 263 43 L 265 46 L 265 54 L 264 56 Z"/>
<ellipse style="fill: none; stroke: rgb(17, 17, 17);" cx="269" cy="21" rx="2" ry="2"/>
<ellipse style="fill: none; stroke: rgb(17, 17, 17);" cx="274" cy="21" rx="2" ry="2"/>
<rect width="100" height="100" style="fill: rgb(113, 183, 255);" x="110"/>
<path style="fill: rgb(17, 17, 17);" d="M 168 21 C 167 0 145 8 151 16 C 151 24 154 30 158 33 C 163 31 168 28 168 21 Z"/>
<path style="fill: rgb(255, 255, 255);" d="M 154 14 C 153 14 151 21 157 27 L 157 31 C 154 32 151 33 150 35 C 147 40 149 47 148 51 L 148 66 L 150 72 L 150 67 L 152 69 L 150 65 L 151 51 L 152 39 C 153 40 156 50 154 53 C 149 61 153 70 154 78 L 155 91 C 152 94 148 96 152 96 C 154 96 158 95 157 91 C 157 84 159 81 157 77 C 158 73 159 68 159 61 L 160 61 C 160 64 160 70 162 77 C 160 82 162 84 162 91 C 162 93 164 96 166 96 C 171 96 166 93 164 91 L 165 78 C 167 69 169 60 165 53 C 162 50 165 40 166 39 L 168 51 L 169 64 L 167 69 L 169 67 L 169 72 L 171 65 L 171 51 C 170 48 171 39 168 35 C 166 32 164 32 161 31 L 161 27 L 164 23 C 166 23 168 17 164 17 C 161 9 157 16 154 14 Z"/>
<path style="fill: rgb(17, 17, 17);" d="M 154 32 C 154 32 152 38 152 41 C 152 45 157 47 159 44 C 161 47 166 45 166 41 C 166 37 164 32 164 32 L 165 38 C 165 41 161 38 159 40 C 157 38 153 41 153 38 L 154 32 Z"/>
<path style="fill: rgb(17, 17, 17);" d="M 154 53 C 154 53 153 54 153 55 C 155 55 157 61 159 61 L 160 61 C 161 59 164 56 166 55 C 166 54 165 53 165 53 C 165 55 154 55 154 53 Z"/>
<rect width="100" height="100" style="fill: rgb(113, 183, 255);" x="110" y="-110"/>
<path style="fill: rgb(255, 255, 255);" d="M 168 -89 C 167 -110 145 -102 151 -94 C 151 -86 154 -80 158 -77 C 163 -79 168 -82 168 -89 Z"/>
<path style="fill: rgb(17, 17, 17);" d="M 154 -96 C 153 -96 151 -86 157 -83 L 157 -79 C 154 -78 151 -77 150 -75 C 147 -70 149 -63 148 -59 L 148 -44 L 150 -38 L 150 -43 L 152 -41 L 150 -45 L 151 -59 L 152 -71 C 153 -70 156 -60 154 -57 C 149 -49 153 -40 154 -32 L 155 -19 C 152 -16 148 -14 152 -14 C 154 -14 158 -15 157 -19 C 157 -26 159 -29 157 -33 C 158 -37 159 -42 159 -49 L 160 -49 C 160 -46 160 -40 162 -33 C 160 -28 162 -26 162 -19 C 162 -17 164 -14 166 -14 C 171 -14 166 -17 164 -19 L 165 -32 C 167 -41 169 -50 165 -57 C 162 -60 165 -70 166 -71 L 168 -59 L 169 -46 L 167 -41 L 169 -43 L 169 -38 L 171 -45 L 171 -59 C 170 -62 171 -71 168 -75 C 166 -78 164 -78 161 -79 L 161 -83 L 164 -87 C 166 -87 168 -93 164 -93 C 161 -101 157 -94 154 -96 Z"/>
<path style="fill: rgb(255, 255, 255);" d="M 154 -78 C 154 -78 152 -72 152 -69 C 152 -65 157 -63 159 -66 C 161 -63 166 -65 166 -69 C 166 -73 164 -78 164 -78 L 165 -72 C 165 -69 161 -72 159 -70 C 157 -72 153 -69 153 -72 L 154 -78 Z"/>
<path style="fill: rgb(255, 255, 255);" d="M 154 -57 C 154 -57 153 -56 153 -55 C 155 -55 157 -49 159 -49 L 160 -49 C 161 -51 164 -54 166 -55 C 166 -56 165 -57 165 -57 C 165 -55 154 -55 154 -57 Z"/>
<path style="fill: rgb(17, 17, 17);" d="M 386 30 L 387 25 C 389 23 388 19 387 20 C 387 10 374 10 374 20 C 373 19 372 23 374 25 L 375 30 L 365 38 L 361 53 L 364 67 L 366 72 L 369 74 L 367 69 L 369 70 L 367 65 L 366 54 L 369 43 L 370 58 L 371 90 L 366 94 L 369 96 L 376 92 L 380 65 L 385 93 L 391 96 L 395 95 L 390 91 L 391 58 L 391 43 L 394 54 L 394 65 L 392 70 L 394 69 L 392 74 L 394 73 L 397 67 L 399 53 L 396 38 L 386 30 Z"/>
<path style="fill: rgb(255, 255, 255);" d="M 374 25 L 375 31 L 381 35 L 386 30 L 387 24 L 385 30 L 382 28 L 379 28 L 376 30 L 374 25 Z"/>
<path style="fill: rgb(255, 255, 255);" d="M 374 31 C 374 31 372 28 372 28 L 371 33 L 365 38 L 362 45 L 368 49 L 369 45 L 369 59 L 392 62 L 391 45 L 392 49 L 399 46 L 396 38 L 389 32 C 389 32 389 29 389 29 L 386 32 L 380 42 L 374 31 Z"/>
<path style="fill: rgb(17, 17, 17);" d="M 465 68 L 463 68 C 464 67 458 62 458 62 C 443 65 445 76 460 74 C 461 74 462 75 463 75 L 465 83 L 474 91 L 488 93 L 492 98 L 493 94 L 491 92 L 492 89 L 488 90 L 477 88 L 472 81 L 489 85 L 521 90 L 525 96 L 527 93 L 523 87 L 500 78 L 531 81 L 536 74 L 535 72 L 529 77 L 495 69 L 480 67 L 491 66 L 500 67 L 504 70 L 503 68 L 507 67 L 508 65 L 502 64 L 491 61 L 475 63 L 465 68 Z"/>
<path style="fill: rgb(255, 255, 255);" d="M 452 64 C 446 64 443 76 453 74 C 451 73 450 69 452 64 Z"/>
<path style="fill: rgb(17, 17, 17);" d="M 452 64 C 450 51 446 68 452 73 C 451 69 451 69 452 64 Z"/>
<path style="fill: rgb(255, 255, 255);" d="M 463 72 L 460 76 L 463 77 C 463 77 465 83 465 83 L 469 88 L 476 85 L 473 82 L 486 88 L 492 83 L 492 73 L 498 69 L 483 67 L 486 61 L 475 63 L 466 67 L 474 71 C 474 71 463 72 463 72 Z"/>
</svg>