<?xml version="1.0" encoding="utf-8"?>
<svg viewBox="0 0 100 100" xmlns="http://www.w3.org/2000/svg">
<defs>
<linearGradient gradientUnits="userSpaceOnUse" x1="1573" y1="-722" x2="1573" y2="-115" id="sky" gradientTransform="matrix(-0.262139, 0, 0, 0.262139, 409.172849, 83.528654)">
<stop offset="0" style="stop-color: rgba(113, 182, 255, 1)"/>
<stop offset="1" style="stop-color: rgba(11, 129, 255, 1)"/>
</linearGradient>
<linearGradient gradientUnits="userSpaceOnUse" x1="1573" y1="722" x2="1573" y2="1553" id="sea" gradientTransform="matrix(0.345419, 0, 0, 0.070454, -546.513885, 52.72599)">
<stop offset="0" style="stop-color: rgba(43, 41, 170, 1)"/>
<stop offset="1" style="stop-color: rgba(22, 21, 88, 1)"/>
</linearGradient>
</defs>
<rect x="-2000" y="-2000" width="4000" height="2104" style="fill: url(#sky);"/>
<rect x="-2000" y="104" width="3995" height="335" style="fill: url(#sea);"/>
<path style="fill: rgb(255, 255, 255);" d="M -213 134 L -241 142 C -241 142 -242 174 -242 174 L -180 174 C -180 174 -167 154 -167 154"/>
<path style="fill: rgb(255, 255, 255);" d="M -265 54 L -108 48 L -65 -29 L 46 -29 L 54 -62 L 74 -69 L 98 -29 L 243 33 L 346 29 C 217 229 -272 218 -265 54 Z"/>
<rect x="-2000" y="104" width="3995" height="335" style="fill: rgba(43, 41, 170, 0.5);"/>
<path style="fill: rgb(13, 130, 255);" d="M 104 -13 L 189 25 L 64 30 L 59 -12 L 104 -13 Z"/>
<path style="fill: rgb(13, 130, 255);" d="M -48 -11 L -68 35 L 56 31 L 51 -12 L -48 -11 Z"/>
<path style="fill: none; stroke: rgb(255, 255, 255); stroke-width: 4px; stroke-linejoin: round; stroke-linecap: round;" d="M 343 31 L 365 2 L 152 38"/>
<path style="fill: rgb(216, 216, 216); stroke: rgb(255, 255, 255); stroke-width: 4px; stroke-linecap: round; stroke-linejoin: round;" d="M 312 32 L 318 11"/>
<path style="fill: rgb(216, 216, 216); stroke: rgb(255, 255, 255); stroke-width: 4px; stroke-linecap: round; stroke-linejoin: round;" d="M 270 34 L 274 18"/>
<g id="Stern">
<path style="fill: rgb(217, 176, 105);" d="M -257 53 C -259 56 -252 81 -251 79 L -100 79 L -63 -11 L -75 -11 L -108 48 L -257 53 Z"/>
<path style="fill: rgb(183, 148, 88);" d="M -255 68 L -251 79 L -100 79 L -95 66 L -255 68 Z"/>
<path style="stroke-width: 2px; stroke-linejoin: round; fill: none; stroke-linecap: round; stroke: rgb(0, 0, 0);" d="M -257 54 C -258 59 -254 76 -251 79 L -100 79 L -63 -11 L -75 -11"/>
<g transform="matrix(1, 0, 0, 1, -340, 15)">
<path style="fill: rgba(255, 255, 255, 0.2);" d="M 46 35 L 46 48 L 38 48 L 51 65 L 63 48 C 63 48 55 48 55 48 L 55 35 C 55 35 46 35 46 35 Z" id="SternUnderwater"/>
</g>
<g transform="matrix(0.5, -0.866, 0.866, 0.5, -195, 50)">
<path style="fill: rgba(255, 255, 255, 0.2);" d="M 46 35 L 46 48 L 38 48 L 51 65 L 63 48 C 63 48 55 48 55 48 L 55 35 C 55 35 46 35 46 35 Z" id="SternInside"/>
</g>
<g transform="matrix(-0.5, -0.866, 0.866, -0.5, -100, 25)">
<path style="fill: rgba(255, 255, 255, 0.2);" d="M 46 35 L 46 48 L 38 48 L 51 65 L 63 48 C 63 48 55 48 55 48 L 55 35 C 55 35 46 35 46 35 Z" id="SternSteer"/>
</g>
<g transform="matrix(0, -1, 1, 0, -160, 40)">
<path style="fill: rgba(255, 255, 255, 0.2);" d="M 46 35 L 46 48 L 38 48 L 51 65 L 63 48 C 63 48 55 48 55 48 L 55 35 C 55 35 46 35 46 35 Z" id="SternBow"/>
</g>
</g>
<g id="Steer">
<path style="fill: rgb(183, 148, 88);" d="M -65 -29 C -65 -29 -69 -22 -69 -22 L 45 -22 L 47 -29 L -65 -29 Z"/>
<path style="stroke-width: 2px; stroke-linejoin: round; fill: none; stroke-linecap: round; stroke: rgb(0, 0, 0);" d="M -69 -22 L 45 -22 L 54 -62"/>
<g transform="matrix(0.707, 0.707, -0.707, 0.707, -95, -110)">
<path style="fill: rgba(255, 255, 255, 0.2);" d="M 46 35 L 46 48 L 38 48 L 51 65 L 63 48 C 63 48 55 48 55 48 L 55 35 C 55 35 46 35 46 35 Z" id="SteerStern"/>
</g>
</g>
<path style="fill: rgb(255, 255, 255);" d="M -26 -71 L -19 -26 L 10 -26 L 7 -45 L -11 -40 C -11 -40 -19 -79 -19 -79 L -26 -71 Z"/>
<g id="Bow">
<path style="fill: rgb(183, 148, 88);" d="M 234 29 L 226 39 L 328 35 L 334 29"/>
<path style="stroke-width: 2px; stroke-linejoin: round; stroke-linecap: round; fill: none; stroke: rgb(0, 0, 0);" d="M 234 29 L 226 39 L 328 35 L 334 29"/>
<g transform="matrix(0, 1, -1, 0, 210, -80)">
<path style="fill: rgba(255, 255, 255, 0.2);" d="M 46 35 L 46 48 L 38 48 L 51 65 L 63 48 C 63 48 55 48 55 48 L 55 35 C 55 35 46 35 46 35 Z" id="BowStern"/>
</g>
</g>
<g id="Inside">
<path style="fill: rgb(217, 176, 105);" d="M -53 -15 L -93 81 L -28 132 L 152 128 L 222 33 L 106 -17 L -53 -15 Z"/>
<path style="fill: rgb(183, 148, 88);" d="M -36 97 L -93 81 L -28 132 L 152 128 L 222 33 L 163 92 L -36 97 Z"/>
<path style="fill: rgb(183, 148, 88);" d="M 104 -13 L 189 25 L 64 30 L 59 -12 L 104 -13 Z"/>
<path style="fill: rgb(183, 148, 88);" d="M -48 -11 L -68 35 L 56 31 L 51 -12 L -48 -11 Z"/>
<path style="stroke-width: 2px; stroke-linejoin: round; stroke-linecap: round; fill: none; stroke: rgb(0, 0, 0);" d="M -53 -15 L -93 81 L -28 132 L 152 128 L 222 33 L 106 -17 L -53 -15 Z"/>
<g transform="matrix(0, 1, -1, 0, 11, -42)">
<path style="fill: rgba(255, 255, 255, 0.2);" d="M 46 35 L 46 48 L 38 48 L 51 65 L 63 48 C 63 48 55 48 55 48 L 55 35 C 55 35 46 35 46 35 Z" id="InsideStern"/>
</g>
<g transform="matrix(0, -1, 1, 0, 137, 92)">
<path style="fill: rgba(255, 255, 255, 0.2);" d="M 46 35 L 46 48 L 38 48 L 51 65 L 63 48 C 63 48 55 48 55 48 L 55 35 C 55 35 46 35 46 35 Z" id="InsideStorage"/>
</g>
</g>
<g id="Storage">
<path style="fill: rgb(217, 176, 105);" d="M 325 41 C 287 82 259 103 200 126 L 159 128 L 221 46 L 325 41 Z"/>
<path style="fill: rgb(183, 148, 88);" d="M 185 94 L 246 105 C 246 105 218 119 200 126 L 159 128 L 185 94 Z"/>
<path style="stroke-width: 2px; stroke-linejoin: round; stroke-linecap: round; fill: none; stroke: rgb(0, 0, 0);" d="M 325 41 C 287 82 259 103 200 126 L 159 128 L 221 46 L 325 41 Z"/>
<g transform="matrix(0, 1, -1, 0, 330, 10)">
<path style="fill: rgba(255, 255, 255, 0.2);" d="M 46 35 L 46 48 L 38 48 L 51 65 L 63 48 C 63 48 55 48 55 48 L 55 35 C 55 35 46 35 46 35 Z" id="StorageInside"/>
</g>
</g>
<g transform="matrix(1, 0, 0, -1, -360, 230)" id="Underwater">
<path style="fill: rgba(255, 255, 255, 0.2);" d="M 46 35 L 46 48 L 38 48 L 51 65 L 63 48 C 63 48 55 48 55 48 L 55 35 C 55 35 46 35 46 35 Z" id="UnderwaterStern"/>
</g>
<path style="fill: rgb(11, 11, 46);" d="M -389 438 L -261 425 C -261 425 -134 434 -134 434 L 11 416 L 170 436 L 300 417 L 561 439 L 2000 439 L 2000 2000 L -2000 2000 L -2000 439 L -389 439 L -389 438 Z"/>
</svg>